
<svg xmlns="http://www.w3.org/2000/svg" version="1.1" xmlns:xlink="http://www.w3.org/1999/xlink" preserveAspectRatio="none" x="0px" y="0px" width="24px" height="24px" viewBox="0 0 24 24">
<defs>
<g id="Layer0_0_FILL">
<path fill="#F2C849" stroke="none" d="
M 15.75 10.35
Q 13.85 8.95 13.65 6.6 13.55 5.8 13.65 5 13.7 4.5 13.85 4.1
L 13.85 4.05
Q 13.85 4 13.8 4
L 13.75 4
Q 11.75 5.1 10.85 6.6 10.05 7.85 10.05 9.35 9.95 10.55 10.4 11.7 10.65 12.55 11 13.15 11 13.2 11 13.25 11 13.3 10.95 13.3 9.75 13.05 9 11.65 8.55 10.9 8.35 10
L 8.25 10
Q 6.8 11.2 6.25 12.6 5.85 13.8 6.05 15.1 6.2 16.2 6.8 17.2 7.35 18 7.95 18.55 8.6 19.2 9.65 19.6 10.75 20 11.95 20 13.25 20 14.35 19.55 15.65 19.05 16.45 18.15 17.3 17.3 17.6 16.3 18.05 15.3 18 14.25 17.9 13.2 17.35 12.2 16.8 11.2 15.75 10.35 Z"/>
</g>
</defs>

<g transform="matrix( 1, 0, 0, 1, 0,0) ">
<use xlink:href="#Layer0_0_FILL"/>
</g>
</svg>
