
<svg xmlns="http://www.w3.org/2000/svg" version="1.1" xmlns:xlink="http://www.w3.org/1999/xlink" preserveAspectRatio="none" x="0px" y="0px" width="500px" height="500px" viewBox="0 0 500 500">
<defs>
<g id="Layer0_0_FILL">
<path fill="#F1C848" stroke="none" d="
M 414.25 377.65
Q 419.55 373.2 420.8 366.45 422 359.65 418.55 353.6
L 266.55 87.6
Q 263.1 81.55 256.55 79.15 250.05 76.7 243.5 79.15 237 81.55 233.55 87.6
L 81.5 353.6
Q 78.05 359.65 79.3 366.45 80.5 373.2 85.85 377.65 91.15 382.1 98 382.1
L 402.1 382.1
Q 408.9 382.1 414.25 377.65 Z"/>
</g>

<g id="Layer0_1_MEMBER_0_FILL">
<path fill="#000000" stroke="none" d="
M 3.05 209.05
L 3.05 109.05
Q 3.05 98.7 -4.3 91.35 -11.6 84.05 -21.95 84.05 -32.3 84.05 -39.65 91.35 -46.95 98.7 -46.95 109.05
L -46.95 209.05
Q -46.95 219.4 -39.65 226.7 -32.3 234.05 -21.95 234.05 -11.6 234.05 -4.3 226.7 3.05 219.4 3.05 209.05 Z"/>
</g>

<g id="Layer0_1_MEMBER_1_FILL">
<path fill="#000000" stroke="none" d="
M -4.3 91.35
Q -11.6 84.05 -21.95 84.05 -32.3 84.05 -39.65 91.35 -46.95 98.7 -46.95 109.05 -46.95 119.4 -39.65 126.7 -32.3 134.05 -21.95 134.05 -11.6 134.05 -4.3 126.7 3.05 119.4 3.05 109.05 3.05 98.7 -4.3 91.35 Z"/>
</g>

<path id="Layer0_0_1_STROKES" stroke="#F1C848" stroke-width="20" stroke-linejoin="round" stroke-linecap="round" fill="none" d="
M 402.1 382.1
L 98 382.1
Q 91.15 382.1 85.85 377.65 80.5 373.2 79.3 366.45 78.05 359.65 81.5 353.6
L 233.55 87.6
Q 237 81.55 243.5 79.15 250.05 76.7 256.55 79.15 263.1 81.55 266.55 87.6
L 418.55 353.6
Q 422 359.65 420.8 366.45 419.55 373.2 414.25 377.65 408.9 382.1 402.1 382.1 Z"/>
</defs>

<g transform="matrix( 1, 0, 0, 1, 0,0) ">
<use xlink:href="#Layer0_0_FILL"/>

<use xlink:href="#Layer0_0_1_STROKES"/>
</g>

<g transform="matrix( 1, 0, 0, 1, 271.95,55.95) ">
<use xlink:href="#Layer0_1_MEMBER_0_FILL"/>
</g>

<g transform="matrix( 1, 0, 0, 1, 271.95,225.95) ">
<use xlink:href="#Layer0_1_MEMBER_1_FILL"/>
</g>
</svg>
