
<svg xmlns="http://www.w3.org/2000/svg" version="1.1" xmlns:xlink="http://www.w3.org/1999/xlink" preserveAspectRatio="none" x="0px" y="0px" width="500px" height="500px" viewBox="0 0 500 500">
<defs>
<g id="Layer0_0_FILL">
<path fill="#000000" stroke="none" d="
M 384.9 337.75
Q 385.85 332.4 383.15 327.6
L 263.1 117.55
Q 260.4 112.8 255.2 110.9 250.1 108.95 244.9 110.9 239.8 112.8 237.05 117.55
L 117 327.6
Q 114.3 332.4 115.25 337.75 116.2 343.1 120.45 346.6 124.6 350.1 130.05 350.1
L 370.15 350.1
Q 375.5 350.1 379.75 346.6 383.95 343.1 384.9 337.75 Z"/>
</g>

<g id="Layer0_0_MEMBER_0_FILL">
<path fill="#F1C848" stroke="none" d="
M 3.05 209.05
L 3.05 109.05
Q 3.05 98.7 -4.3 91.35 -11.6 84.05 -21.95 84.05 -32.3 84.05 -39.65 91.35 -46.95 98.7 -46.95 109.05
L -46.95 209.05
Q -46.95 219.4 -39.65 226.7 -32.3 234.05 -21.95 234.05 -11.6 234.05 -4.3 226.7 3.05 219.4 3.05 209.05 Z"/>
</g>

<g id="Layer0_0_MEMBER_1_FILL">
<path fill="#F1C848" stroke="none" d="
M -4.3 91.35
Q -11.6 84.05 -21.95 84.05 -32.3 84.05 -39.65 91.35 -46.95 98.7 -46.95 109.05 -46.95 119.4 -39.65 126.7 -32.3 134.05 -21.95 134.05 -11.6 134.05 -4.3 126.7 3.05 119.4 3.05 109.05 3.05 98.7 -4.3 91.35 Z"/>
</g>

<path id="Layer0_0_1_STROKES" stroke="#F1C848" stroke-width="20" stroke-linejoin="round" stroke-linecap="round" fill="none" d="
M 370.15 350.1
L 130.05 350.1
Q 124.6 350.1 120.45 346.6 116.2 343.1 115.25 337.75 114.3 332.4 117 327.6
L 237.05 117.55
Q 239.8 112.8 244.9 110.9 250.1 108.95 255.2 110.9 260.4 112.8 263.1 117.55
L 383.15 327.6
Q 385.85 332.4 384.9 337.75 383.95 343.1 379.75 346.6 375.5 350.1 370.15 350.1 Z"/>
</defs>

<g transform="matrix( 1, 0, 0, 1, 0,14) ">
<use xlink:href="#Layer0_0_FILL"/>

<use xlink:href="#Layer0_0_1_STROKES"/>
</g>

<g transform="matrix( 0.589569091796875, 0, 0, 0.589569091796875, 262.95,145.4) ">
<use xlink:href="#Layer0_0_MEMBER_0_FILL"/>
</g>

<g transform="matrix( 0.589569091796875, 0, 0, 0.589569091796875, 262.95,245.6) ">
<use xlink:href="#Layer0_0_MEMBER_1_FILL"/>
</g>
</svg>
