
<svg xmlns="http://www.w3.org/2000/svg" version="1.1" xmlns:xlink="http://www.w3.org/1999/xlink" preserveAspectRatio="none" x="0px" y="0px" width="950px" height="850px" viewBox="0 0 950 850">
<defs>
<g id="Wireframe_Flat_0_Layer5_0_FILL">
<path fill="#333333" stroke="none" d="
M 256.9 -208
L 256.9 -230.8 243.2 -230.8 241.65 -419.45
Q -24.5 -357.4 -152.35 -134.95
L -93 -126.6 -84.7 0.2 -93 127.05 -152.35 135.4
Q -24.5 357.85 241.65 419.9
L 243.2 231.25 256.9 231.25 256.9 208.45 325.4 109.55 325.4 0.45 325.4 0 325.4 -109.1 256.9 -208 Z"/>
</g>

<g id="Wireframe_Flat_0_Layer4_0_FILL">
<path fill="#99999A" stroke="none" d="
M -91.2 -96.55
L -112 -98.8 -112 98.8 -91.2 96.55 -84.85 0 -91.2 -96.55
M -104.4 -90.3
L -98.35 -89.65 -92.45 0 -98.35 89.65 -104.4 90.35 -104.4 -90.3 Z"/>

<path fill="#FF0000" stroke="none" d="
M -98.35 -89.65
L -104.4 -90.3 -104.4 90.35 -98.35 89.65 -92.45 0 -98.35 -89.65 Z"/>
</g>

<g id="Wireframe_Flat_0_Layer4_1_FILL">
<path fill="#333333" stroke="none" d="
M 495.9 -10.55
L 379.6 -50.5 282.6 -50.5 282.6 56 379.6 56 495.9 15.95 495.9 -10.55 Z"/>
</g>

<g id="Wireframe_Flat_0_Layer4_2_FILL">
<path fill="#333333" stroke="none" d="
M 406.45 -14.35
L 380.2 -35.3 282.6 -35.3 282.6 40.8 380.2 40.8 406.45 19.85 513.25 15.1 713.75 6.15 713.75 -0.65 513.25 -9.6 406.45 -14.35 Z"/>
</g>

<g id="Wireframe_Flat_0_Layer4_3_FILL">
<path fill="#CCCCCC" stroke="none" d="
M 231.5 -25
L 225 -19.8 225 19.75 231.5 25 400 25
Q 410.35 25 417.65 17.65 425 10.35 425 0 425 -10.35 417.65 -17.7 410.35 -25 400 -25
L 231.5 -25 Z"/>
</g>

<g id="Wireframe_Flat_0_Layer4_4_FILL">
<path fill="#FF0000" stroke="none" d="
M 400 -15
Q 393.75 -15 389.4 -10.6 385 -6.2 385 0 385 6.25 389.4 10.6 393.75 15 400 15 406.2 15 410.6 10.6 412.0087890625 9.2072265625 412.95 7.6
L 716.75 1.4 716.75 -1.4 412.95 -7.65
Q 411.998828125 -9.201171875 410.6 -10.6 406.2 -15 400 -15 Z"/>
</g>

<g id="Wireframe_Flat_0_Layer3_0_FILL">
<path fill="#99999A" stroke="none" d="
M 80 -25
L 80 -20 24.9 -20 24.9 20 80 20 80 25 120 25 120 20 224.9 20 224.9 -20 120 -20 120 -25 80 -25 Z"/>
</g>

<g id="Cannon_0_Layer0_0_FILL">
<path fill="#FF0000" stroke="none" d="
M -88.8 -15.45
Q -93.65 -10.55 -93.65 -3.65 -93.65 3.2 -88.8 8.05 -85.15 11.7 -80.35 12.65 -78.8 12.95 -77.05 12.95 -70.15 12.95 -65.3 8.05 -60.4 3.2 -60.4 -3.65 -60.4 -10.55 -65.3 -15.45 -70.15 -20.3 -77.05 -20.3 -78.8 -20.3 -80.35 -19.95 -85.15 -19.05 -88.8 -15.45 Z"/>
</g>

<g id="Cannon_0_Layer0_1_FILL">
<path fill="#666666" stroke="none" d="
M -76.95 -27.15
L -76.95 17.85 83.6 28.1 93.65 -3.15
Q 16.05 -33.1 -76.95 -27.15 Z"/>
</g>

<g id="Cannon_0_Layer0_2_FILL">
<path fill="#999999" stroke="none" d="
M 74.7 15
L 78.1 4.45
Q 16.45 -16.85 -54.85 -15.55
L -54.85 6.75 74.7 15 Z"/>
</g>

<g id="Cannon_Node_0_Layer0_0_FILL">
<path fill="#FF0000" stroke="none" d="
M -2 -9.8
Q -4.9 -9.25 -7.1 -7.1 -10 -4.15 -10 0 -10 4.1 -7.1 7.05 -4.9 9.25 -2 9.8 -1.1 10 0 10 3.25 10 21.05 6.05 40 1.8 40 0 40 -1.8 21.05 -6.05 3.25 -10 0 -10 -1.1 -10 -2 -9.8 Z"/>
</g>

<g id="Wing_flat_0_Layer5_0_FILL">
<path fill="#99999A" stroke="none" d="
M 300 -120
Q 291.7 -120 285.85 -114.15 280 -108.3 280 -100
L 280 -25 320 -25 320 -100
Q 320 -108.3 314.15 -114.15 308.3 -120 300 -120 Z"/>

<path fill="#999999" stroke="none" d="
M 125 -120
L 120 -120 120 -170 -0.05 -170
Q -29 -170 -49.5 -149.4 -70 -129 -70 -100 -70 -71 -49.5 -50.55 -29 -30 -0.05 -30
L 80 -30 80 -25 120 -25 120 -80 125 -80 125 -120 Z"/>

<path fill="#CCCCCC" stroke="none" d="
M 135.9 -164.2
Q 130 -158.3 130 -150.05 130 -141.75 135.9 -135.9 137.1224609375 -134.6669921875 138.45 -133.7 134.798046875 -127.176953125 132.7 -120
L 125 -120 125 -80 132.7 -80
Q 134.78828125 -72.846875 138.4 -66.35 137.107421875 -65.3970703125 135.9 -64.2 130 -58.3 130 -50.05 130 -41.75 135.9 -35.9 141.75 -30 150 -30 158.3 -30 164.15 -35.9 165.359765625 -37.109765625 166.3 -38.45 181.38203125 -30 199.95 -30 218.5884765625 -30 233.65 -38.45 234.663671875 -37.12578125 235.9 -35.9 241.75 -30 250 -30 258.3 -30 264.15 -35.9 270 -41.75 270 -50.05 270 -58.3 264.15 -64.2 262.9203125 -65.419140625 261.55 -66.4 270 -81.4400390625 270 -100 270 -118.5962890625 261.55 -133.65 262.9052734375 -134.6447265625 264.15 -135.9 270 -141.75 270 -150.05 270 -158.3 264.15 -164.2 258.3 -170 250 -170 241.75 -170 235.9 -164.2 234.6296875 -162.9296875 233.6 -161.55 218.5552734375 -170 199.95 -170 181.415234375 -170 166.35 -161.6 165.39375 -162.945703125 164.15 -164.2 158.3 -170 150 -170 141.75 -170 135.9 -164.2 Z"/>
</g>

<g id="Wing_flat_0_Layer4_0_FILL">
<path fill="#666666" stroke="none" d="
M 5.95 -289.05
L 5.95 -289 13.5 -258.15
Q 13.5 -258 13.55 -257.8
L 13.65 -257.85 13.55 -257.75 30.25 -268.4 30.25 -307.2 5.95 -289.05
M 197.75 -292.35
L 225.75 -220.15 225.45 -300.55 197.75 -292.35
M 180 -378.05
Q 180.05 -378.4 180.15 -378.75
L 128.25 -359.25
Q 128 -359.15 127.85 -359.1 127.8 -359.1 127.75 -359.05
L 127.7 -358.95
Q 127.65 -358.9 127.65 -358.8
L 117.05 -311.1 117.05 -311.05 170.25 -327 170.3 -327.05 170.3 -327.1 170.25 -327.05 170.25 -327.1 180 -378.05
M 225 -389.8
Q 225 -390.15 225.05 -390.45
L 213.05 -387.75
Q 212.2 -387.6 211.4 -387.6
L 201.25 -336.7 225.2 -343.85 225 -389.8 Z"/>
</g>

<g id="Wing_flat_0_Layer3_0_FILL">
<path fill="#FF0000" stroke="none" d="
M 239.4 -60.65
Q 235 -56.25 235 -50.05 235 -43.8 239.4 -39.4 243.8 -35 250 -35 256.25 -35 260.6 -39.4 265 -43.8 265 -50.05 265 -56.25 260.6 -60.65 256.25 -65 250 -65 243.8 -65 239.4 -60.65
M 200 -121.65
Q 191.05 -121.65 184.75 -115.35 178.4 -109 178.4 -100.05 178.4 -91.05 184.75 -84.75 191.05 -78.4 200 -78.4 209 -78.4 215.3 -84.75 221.65 -91.05 221.65 -100.05 221.65 -109 215.3 -115.35 209 -121.65 200 -121.65
M 260.6 -160.65
Q 256.25 -165 250 -165 243.8 -165 239.4 -160.65 235 -156.25 235 -150.05 235 -143.8 239.4 -139.4 243.8 -135 250 -135 256.25 -135 260.6 -139.4 265 -143.8 265 -150.05 265 -156.25 260.6 -160.65
M 139.4 -60.65
Q 135 -56.25 135 -50.05 135 -43.8 139.4 -39.4 143.8 -35 150 -35 156.25 -35 160.6 -39.4 165 -43.8 165 -50.05 165 -56.25 160.6 -60.65 156.25 -65 150 -65 143.8 -65 139.4 -60.65
M 139.4 -160.65
Q 135 -156.25 135 -150.05 135 -143.8 139.4 -139.4 143.8 -135 150 -135 156.25 -135 160.6 -139.4 165 -143.8 165 -150.05 165 -156.25 160.6 -160.65 156.25 -165 150 -165 143.8 -165 139.4 -160.65 Z"/>
</g>

<g id="Wing_flat_0_Layer2_0_FILL">
<path fill="#FF0000" stroke="none" d="
M 272.3 -206.15
L 258.15 -206.15 297 -150.1 297 -114.75
Q 292.66484375 -113.90234375 289.4 -110.6 285 -106.2 285 -100 285 -93.75 289.4 -89.4 293.75 -85 300 -85 306.2 -85 310.6 -89.4 315 -93.75 315 -100 315 -106.2 310.6 -110.6 307.3046875 -113.8953125 303 -114.75
L 303 -141.45 325.4 -109.1 325.4 -65.95 336.6 -65.95 336.6 -113.25 272.3 -206.15 Z"/>
</g>

<g id="Door_0_Layer0_0_FILL">
<path fill="#FFCC00" stroke="none" d="
M -5 -15
L -5 0 5 0 5 -15 -5 -15 Z"/>
</g>

<g id="Door_0_Layer0_1_FILL">
<path fill="#FFCC00" stroke="none" d="
M -5 -15
L -5 0 5 0 5 -15 -5 -15 Z"/>
</g>

<g id="Wireframe_Flat_0_Layer1_0_FILL">
<path fill="#CCCCCC" stroke="none" d="
M 25 -10.35
L 10.3 -24.95 -45.4 -24.95 -60 -10.3 -60 10.4 -45.35 24.95 10.35 24.95 24.95 10.3 25 -10.35 Z"/>
</g>
</defs>

<g transform="matrix( 0.9999847412109375, 0, 0, 1, 225,425) ">
<g transform="matrix( 1, 0, 0, 1, 0,0) ">
<use xlink:href="#Wireframe_Flat_0_Layer5_0_FILL"/>
</g>

<g transform="matrix( 1, 0, 0, 1, 0,0) ">
<use xlink:href="#Wireframe_Flat_0_Layer4_0_FILL"/>
</g>

<g transform="matrix( 1, 0, 0, 1, 3,-2.75) ">
<use xlink:href="#Wireframe_Flat_0_Layer4_1_FILL"/>
</g>

<g transform="matrix( 1, 0, 0, 1, 3,-2.75) ">
<use xlink:href="#Wireframe_Flat_0_Layer4_2_FILL"/>
</g>

<g transform="matrix( 1, 0, 0, 1, 0,0) ">
<use xlink:href="#Wireframe_Flat_0_Layer4_3_FILL"/>
</g>

<g transform="matrix( 1, 0, 0, 1, 0,0) ">
<use xlink:href="#Wireframe_Flat_0_Layer4_4_FILL"/>
</g>

<g transform="matrix( 1, 0, 0, 1, 0,0) ">
<use xlink:href="#Wireframe_Flat_0_Layer3_0_FILL"/>
</g>

<g transform="matrix( 0.9999847412109375, 0, 0, 0.9999847412109375, 0,0) ">
<g transform="matrix( 0.760986328125, 0, 0, 0.760986328125, -133.35,-114.3) ">
<g transform="matrix( 1, 0, 0, 1, 0,0) ">
<use xlink:href="#Cannon_0_Layer0_0_FILL"/>
</g>

<g transform="matrix( 1, 0, 0, 1, 0,0) ">
<use xlink:href="#Cannon_0_Layer0_1_FILL"/>
</g>

<g transform="matrix( 1, 0, 0, 1, 0,0) ">
<use xlink:href="#Cannon_0_Layer0_2_FILL"/>
</g>

<g transform="matrix( 1.4224853515625, 0, 0, 1.4224853515625, -51.6,-4) ">
<g transform="matrix( 1, 0, 0, 1, 0,0) ">
<use xlink:href="#Cannon_Node_0_Layer0_0_FILL"/>
</g>
</g>
</g>

<g transform="matrix( 1, 0, 0, 1, 0,0) ">
<use xlink:href="#Wing_flat_0_Layer5_0_FILL"/>
</g>

<g transform="matrix( 1, 0, 0, 1, 0,0) ">
<use xlink:href="#Wing_flat_0_Layer4_0_FILL"/>
</g>

<g transform="matrix( 1, 0, 0, 1, 0,0) ">
<use xlink:href="#Wing_flat_0_Layer3_0_FILL"/>
</g>

<g transform="matrix( 1, 0, 0, 1, 0,0) ">
<use xlink:href="#Wing_flat_0_Layer2_0_FILL"/>
</g>

<g transform="matrix( 0, 1, -1, 0, 100,-25) ">
<g transform="matrix( 0.600006103515625, 0, 0, 1, 0,0) ">
<use xlink:href="#Door_0_Layer0_0_FILL"/>
</g>

<g transform="matrix( 0.600006103515625, 0, 0, 1, 0,15) ">
<use xlink:href="#Door_0_Layer0_1_FILL"/>
</g>
</g>

<g transform="matrix( -1, 0, 0, -1, 125,-100) ">
<g transform="matrix( 0.600006103515625, 0, 0, 1, 0,0) ">
<use xlink:href="#Door_0_Layer0_0_FILL"/>
</g>

<g transform="matrix( 0.600006103515625, 0, 0, 1, 0,15) ">
<use xlink:href="#Door_0_Layer0_1_FILL"/>
</g>
</g>

<g transform="matrix( 0, 1, -1, 0, 300,-25) ">
<g transform="matrix( 0.600006103515625, 0, 0, 1, 0,0) ">
<use xlink:href="#Door_0_Layer0_0_FILL"/>
</g>

<g transform="matrix( 0.600006103515625, 0, 0, 1, 0,15) ">
<use xlink:href="#Door_0_Layer0_1_FILL"/>
</g>
</g>
</g>

<g transform="matrix( 0.9999847412109375, 0, 0, -0.9999847412109375, 0,0) ">
<g transform="matrix( 0.760986328125, 0, 0, 0.760986328125, -133.35,-114.3) ">
<g transform="matrix( 1, 0, 0, 1, 0,0) ">
<use xlink:href="#Cannon_0_Layer0_0_FILL"/>
</g>

<g transform="matrix( 1, 0, 0, 1, 0,0) ">
<use xlink:href="#Cannon_0_Layer0_1_FILL"/>
</g>

<g transform="matrix( 1, 0, 0, 1, 0,0) ">
<use xlink:href="#Cannon_0_Layer0_2_FILL"/>
</g>

<g transform="matrix( 1.4224853515625, 0, 0, 1.4224853515625, -51.6,-4) ">
<g transform="matrix( 1, 0, 0, 1, 0,0) ">
<use xlink:href="#Cannon_Node_0_Layer0_0_FILL"/>
</g>
</g>
</g>

<g transform="matrix( 1, 0, 0, 1, 0,0) ">
<use xlink:href="#Wing_flat_0_Layer5_0_FILL"/>
</g>

<g transform="matrix( 1, 0, 0, 1, 0,0) ">
<use xlink:href="#Wing_flat_0_Layer4_0_FILL"/>
</g>

<g transform="matrix( 1, 0, 0, 1, 0,0) ">
<use xlink:href="#Wing_flat_0_Layer3_0_FILL"/>
</g>

<g transform="matrix( 1, 0, 0, 1, 0,0) ">
<use xlink:href="#Wing_flat_0_Layer2_0_FILL"/>
</g>

<g transform="matrix( 0, 1, -1, 0, 100,-25) ">
<g transform="matrix( 0.600006103515625, 0, 0, 1, 0,0) ">
<use xlink:href="#Door_0_Layer0_0_FILL"/>
</g>

<g transform="matrix( 0.600006103515625, 0, 0, 1, 0,15) ">
<use xlink:href="#Door_0_Layer0_1_FILL"/>
</g>
</g>

<g transform="matrix( -1, 0, 0, -1, 125,-100) ">
<g transform="matrix( 0.600006103515625, 0, 0, 1, 0,0) ">
<use xlink:href="#Door_0_Layer0_0_FILL"/>
</g>

<g transform="matrix( 0.600006103515625, 0, 0, 1, 0,15) ">
<use xlink:href="#Door_0_Layer0_1_FILL"/>
</g>
</g>

<g transform="matrix( 0, 1, -1, 0, 300,-25) ">
<g transform="matrix( 0.600006103515625, 0, 0, 1, 0,0) ">
<use xlink:href="#Door_0_Layer0_0_FILL"/>
</g>

<g transform="matrix( 0.600006103515625, 0, 0, 1, 0,15) ">
<use xlink:href="#Door_0_Layer0_1_FILL"/>
</g>
</g>
</g>

<g transform="matrix( 1, 0, 0, 1, 0,0) ">
<use xlink:href="#Wireframe_Flat_0_Layer1_0_FILL"/>
</g>

<g transform="matrix( 1, 0, 0, 1, 25,0) ">
<g transform="matrix( 0.600006103515625, 0, 0, 1, 0,0) ">
<use xlink:href="#Door_0_Layer0_0_FILL"/>
</g>

<g transform="matrix( 0.600006103515625, 0, 0, 1, 0,15) ">
<use xlink:href="#Door_0_Layer0_1_FILL"/>
</g>
</g>

<g transform="matrix( 1, 0, 0, 1, 225,0) ">
<g transform="matrix( 0.600006103515625, 0, 0, 1, 0,0) ">
<use xlink:href="#Door_0_Layer0_0_FILL"/>
</g>

<g transform="matrix( 0.600006103515625, 0, 0, 1, 0,15) ">
<use xlink:href="#Door_0_Layer0_1_FILL"/>
</g>
</g>

<g transform="matrix( 0, 1, -1, 0, 300,-25) ">
<g transform="matrix( 0.600006103515625, 0, 0, 1, 0,0) ">
<use xlink:href="#Door_0_Layer0_0_FILL"/>
</g>

<g transform="matrix( 0.600006103515625, 0, 0, 1, 0,15) ">
<use xlink:href="#Door_0_Layer0_1_FILL"/>
</g>
</g>
</g>
</svg>
