
<svg xmlns="http://www.w3.org/2000/svg" version="1.1" xmlns:xlink="http://www.w3.org/1999/xlink" preserveAspectRatio="none" x="0px" y="0px" width="950px" height="850px" viewBox="0 0 950 850">
<defs>
<g id="Wireframe_Flat_0_Layer9_0_FILL">
<path fill="#333333" stroke="none" d="
M 716.75 -3
L 716.75 -3.4 516.25 -12.35 498.9 -13.15 498.9 -13.3 382.6 -53.25 325.4 -53.25 325.4 -57.75
Q 327.0599609375 -56.9919921875 329 -57 332.667578125 -56.99921875 335.25 -59.6 335.3263671875 -59.6728515625 335.4 -59.75 338.00078125 -62.332421875 338 -66
L 338 -108
Q 338.0115234375 -110.779296875 336.5 -113 336.300390625 -113.4060546875 336 -113.8
L 275.6 -200.1 275.65 -199.95
Q 273.498046875 -203.258984375 270 -204.25 265.7712890625 -205.5572265625 262.5 -203.15 261.7296875 -202.6271484375 261.1 -202
L 256.9 -208.05 256.9 -230.8 256.9 -230.85 243.2 -230.85 241.65 -419.5
Q 109.4 -388.65 8.85 -314.85 -90.5 -241.9 -154.85 -130
L -154.85 -130
Q -154.836328125 -129.973828125 -154.85 -129.95
L -93 -126.6 -84.7 0.2 -93 127 -154.85 130.35
Q -154.836328125 130.373828125 -154.85 130.4
L -154.85 130.4
Q -90.5 242.3 8.85 315.25 109.4 389.05 241.65 419.9
L 243.2 231.25 256.9 231.25 256.9 231.2 256.9 208.45 261.1 202.35
Q 261.7099609375 203.0064453125 262.55 203.55 265.75 205.95 270 204.6 273.5 203.65 275.7 200.35
L 275.6 200.45 336.05 114.2
Q 336.3 113.8 336.5 113.35 338 111.2 338 108.4
L 338 66.4
Q 338 62.75 335.4 60.15 335.35 60.05 335.25 60 332.65 57.4 329 57.4 327.05 57.4 325.4 58.1
L 325.4 53.65 382.6 53.65 498.9 13.7 498.9 13.5 516.25 12.75 716.75 3.8 716.75 3.4 716.75 -3 Z"/>
</g>

<g id="Wireframe_Flat_0_Layer8_0_FILL">
<path fill="#999999" stroke="none" d="
M -91.2 -96.55
L -112 -98.8 -112 -19.1
Q -114.0423828125 -17.7880859375 -115.9 -16
L -115.9 -15.95
Q -122.50234375 -9.351171875 -122.5 -0.05 -122.4935546875 9.309765625 -115.9 15.9 -114.05703125 17.7498046875 -112 19.05
L -112 98.8 -91.2 96.55 -86 17.6
Q -85.022265625 16.8291015625 -84.1 15.9
L -84.1 15.85
Q -77.506640625 9.2919921875 -77.5 -0.05 -77.4978515625 -9.351171875 -84.1 -15.95 -85.02421875 -16.8751953125 -86 -17.65
L -91.2 -96.55 Z"/>
</g>

<g id="Wireframe_Flat_0_Layer7_0_FILL">
<path fill="#CCCCCC" stroke="none" d="
M 231.5 -25
L 225 -19.8 225 19.75 231.5 25 400 25
Q 410.35 25 417.65 17.65 425 10.35 425 0 425 -10.35 417.65 -17.7 410.35 -25 400 -25
L 231.5 -25 Z"/>
</g>

<g id="Wireframe_Flat_0_Layer6_0_FILL">
<path fill="#99999A" stroke="none" d="
M 80 -25
L 80 -20 24.9 -20 24.9 20 80 20 80 25 120 25 120 20 224.9 20 224.9 -20 120 -20 120 -25 80 -25 Z"/>
</g>

<g id="Wing_flat_0_Layer8_0_FILL">
<path fill="#CCCCCC" stroke="none" d="
M -204.1 -129.15
Q -210 -123.25 -210 -115 -210 -106.7 -204.1 -100.85 -198.25 -94.95 -190 -94.95 -189.136328125 -94.95 -188.3 -95.05 -187.9025390625 -95 -187.5 -95
L -180.9 -95 -150.9 -95 -119.45 -95
Q -118.1517578125 -89.8517578125 -114.15 -85.85 -108.3 -80 -100 -80 -91.7 -80 -85.85 -85.85 -80 -91.7 -80 -100
L -80 -115
Q -80 -123.3 -85.85 -129.15 -91.7 -135 -100 -135 -100.2486328125 -135 -100.5 -135
L -150.9 -135 -153.9 -135 -159.9 -135 -180.9 -135 -187.5 -135
Q -188.1322265625 -135 -188.75 -135 -189.3677734375 -135 -190 -135 -198.25 -135 -204.1 -129.15 Z"/>
</g>

<g id="Wing_flat_0_Layer6_0_FILL">
<path fill="#99999A" stroke="none" d="
M 320 -100
Q 320 -108.3 314.15 -114.15 308.3 -120 300 -120 291.7 -120 285.85 -114.15 280 -108.3 280 -100
L 280 -25 320 -25 320 -100 Z"/>

<path fill="#999999" stroke="none" d="
M 125 -120
L 120 -120 120 -170 -0.05 -170
Q -29 -170 -49.5 -149.4 -70 -129 -70 -100 -70 -71 -49.5 -50.55 -29 -30 -0.05 -30
L 80 -30 80 -25 120 -25 120 -80 125 -80 125 -120 Z"/>

<path fill="#CCCCCC" stroke="none" d="
M 150 -170
Q 141.75 -170 135.9 -164.2 130 -158.3 130 -150.05 130 -141.75 135.9 -135.9 137.1224609375 -134.6669921875 138.45 -133.7 134.798046875 -127.176953125 132.7 -120
L 125 -120 125 -80 132.7 -80
Q 134.78828125 -72.846875 138.4 -66.35 137.107421875 -65.3970703125 135.9 -64.2 130 -58.3 130 -50.05 130 -41.75 135.9 -35.9 141.75 -30 150 -30 158.3 -30 164.15 -35.9 165.359765625 -37.109765625 166.3 -38.45 181.38203125 -30 199.95 -30 218.5884765625 -30 233.65 -38.45 234.663671875 -37.12578125 235.9 -35.9 241.75 -30 250 -30 258.3 -30 264.15 -35.9 270 -41.75 270 -50.05 270 -58.3 264.15 -64.2 262.9203125 -65.419140625 261.55 -66.4 270 -81.4400390625 270 -100 270 -118.5962890625 261.55 -133.65 262.9052734375 -134.6447265625 264.15 -135.9 270 -141.75 270 -150.05 270 -158.3 264.15 -164.2 258.3 -170 250 -170 241.75 -170 235.9 -164.2 234.6296875 -162.9296875 233.6 -161.55 218.5552734375 -170 199.95 -170 181.415234375 -170 166.35 -161.6 165.39375 -162.945703125 164.15 -164.2 158.3 -170 150 -170 Z"/>
</g>

<g id="Wing_flat_0_Layer5_0_FILL">
<path fill="#666666" stroke="none" d="
M 37.75 -307.2
Q 37.7515625 -310.0814453125 35.8 -312.25 33.848046875 -314.38515625 30.95 -314.7 28.0921875 -314.9447265625 25.75 -313.2
L 1.45 -295.05
Q 0.0375 -293.9798828125 -0.75 -292.4 -1.5478515625 -290.8181640625 -1.55 -289.05
L -1.55 -289
Q -1.5451171875 -288.11171875 -1.35 -287.25
L 6.05 -257.05
Q 6.2716796875 -254.836328125 7.7 -253.05 9.49765625 -250.816796875 12.3 -250.35 15.1490234375 -249.88125 17.55 -251.45
L 34.25 -262.1
Q 35.8923828125 -263.11328125 36.8 -264.8 37.751171875 -266.48828125 37.75 -268.4
L 37.75 -307.2
M 195.6 -299.55
Q 193.59140625 -298.9353515625 192.15 -297.35 190.7583984375 -295.7712890625 190.35 -293.7 189.9845703125 -291.6353515625 190.75 -289.65
L 218.75 -217.45
Q 219.7447265625 -214.9220703125 222.1 -213.6 224.498046875 -212.273828125 227.15 -212.8 229.7994140625 -213.2810546875 231.5 -215.4 233.2578125 -217.474609375 233.25 -220.2
L 232.95 -300.6
Q 232.9455078125 -302.9505859375 231.55 -304.9 230.14765625 -306.8609375 227.85 -307.65 225.601171875 -308.4310546875 223.3 -307.75
L 195.6 -299.55
M 186.85 -382.05
Q 185.5935546875 -384.6544921875 182.9 -385.75 180.191796875 -386.7958984375 177.5 -385.8
L 126.45 -366.6
Q 124.4068359375 -366.3095703125 122.45 -364.35 122.33359375 -364.23125 122.2 -364.1 120.471875 -362.64296875 120.2 -359.85
L 109.7 -312.75
Q 109.5482421875 -311.9212890625 109.55 -311.1
L 109.55 -311.05
Q 109.5484375 -308.6513671875 110.95 -306.7 112.3509765625 -304.737109375 114.6 -303.95 116.9033203125 -303.1728515625 119.2 -303.9
L 172.4 -319.85
Q 174.205078125 -320.371484375 175.55 -321.7
L 175.6 -321.75
Q 177.6109375 -323.7580078125 177.75 -326.55
L 187.35 -376.65
Q 187.4041015625 -376.8466796875 187.4 -377 188.0861328125 -379.598046875 186.85 -382.05
M 228.15 -397.25
Q 225.87421875 -398.3224609375 223.4 -397.8
L 211.55 -395.1 211.5 -395.1
Q 211.4615234375 -395.099609375 211.4 -395.1 208.7333984375 -395.105078125 206.65 -393.4 204.57109375 -391.6892578125 204.05 -389.1
L 193.9 -338.2
Q 193.3693359375 -335.5505859375 194.6 -333.2 195.8826171875 -330.8115234375 198.35 -329.8 200.828515625 -328.746484375 203.4 -329.55
L 227.35 -336.7
Q 229.739453125 -337.3962890625 231.2 -339.4 232.7115234375 -341.4001953125 232.7 -343.9
L 232.5 -389.6
Q 232.783203125 -391.8626953125 231.65 -393.95 230.4787109375 -396.1935546875 228.15 -397.25 Z"/>
</g>

<g id="Wing_flat_0_Layer4_0_FILL">
<path fill="#333333" stroke="none" d="
M 199.95 -125
Q 189.6 -125 182.35 -117.7 175 -110.35 175 -100 175 -89.6 182.35 -82.35 189.6 -75 199.95 -75 210.35 -75 217.65 -82.35 225 -89.6 225 -100 225 -110.35 217.65 -117.7 210.35 -125 199.95 -125 Z"/>
</g>

<g id="Door_0_Layer0_0_FILL">
<path fill="#FFCC00" stroke="none" d="
M 3 -15
L -3 -15 -3 0 3 0 3 -15 Z"/>
</g>

<g id="Door_0_Layer0_1_FILL">
<path fill="#FFCC00" stroke="none" d="
M 3 15
L 3 0 -3 0 -3 15 3 15 Z"/>
</g>

<g id="Wing_flat_0_Layer1_0_FILL">
<path fill="#FF0000" stroke="none" d="
M -190 -119
L -190 -130
Q -196.2 -130 -200.6 -125.6 -205 -121.2 -205 -115 -205 -108.8 -200.6 -104.4 -196.2 -100 -190 -100
L -190 -111 -104 -111 -104 -98
Q -104 -96.35 -102.85 -95.2 -101.65 -94 -100 -94 -98.35 -94 -97.2 -95.2 -96 -96.35 -96 -98
L -96 -115
Q -96 -116.65 -97.2 -117.85 -98.35 -119 -100 -119
L -190 -119
M 268.5 -199.45
Q 266.75 -200 265.4 -199.05 264.05 -198.1 263.85 -196.2 263.8 -194.35 264.95 -192.6
L 325 -106.9 325 -66
Q 325 -64.35 326.15 -63.2 327.35 -62 329 -62 330.65 -62 331.8 -63.2 333 -64.35 333 -66
L 333 -108
Q 333 -109.65 331.8 -110.85
L 331.9 -110.95 271.5 -197.2
Q 270.35 -198.95 268.5 -199.45 Z"/>
</g>

<g id="Wireframe_Flat_0_Layer4_0_FILL">
<path fill="#CCCCCC" stroke="none" d="
M 25 -10.35
L 10.3 -24.95 -45.4 -24.95 -60 -10.3 -60 10.4 -45.35 24.95 10.35 24.95 24.95 10.3 25 -10.35 Z"/>
</g>

<g id="Wireframe_Flat_0_Layer3_0_FILL">
<path fill="#FF0000" stroke="none" d="
M 718.8 -2.85
Q 717.65 -4 716 -4
L 434 -4
Q 432.35 -4 431.15 -2.85 430 -1.65 430 0 430 1.65 431.15 2.8 432.35 4 434 4
L 716 4
Q 717.65 4 718.8 2.8 720 1.65 720 0 720 -1.65 718.8 -2.85 Z"/>
</g>

<g id="Wireframe_Flat_0_Layer3_1_FILL">
<path fill="#FF0000" stroke="none" d="
M -100 -65
Q -101.65 -65 -102.85 -63.85 -104 -62.65 -104 -61
L -104 61
Q -104 62.65 -102.85 63.8 -101.65 65 -100 65 -98.35 65 -97.2 63.8 -96 62.65 -96 61
L -96 -61
Q -96 -62.65 -97.2 -63.85 -98.35 -65 -100 -65 Z"/>
</g>

<path id="Wing_flat_0_Layer7_0_1_STROKES" stroke="#313132" stroke-width="2" stroke-linejoin="round" stroke-linecap="round" fill="none" d="
M 100 -80.75
L 100 -156.3"/>
</defs>

<g transform="matrix( 0.9999847412109375, 0, 0, 1, 225,425) ">
<g transform="matrix( 1, 0, 0, 1, 0,0) ">
<use xlink:href="#Wireframe_Flat_0_Layer9_0_FILL"/>
</g>

<g transform="matrix( 1, 0, 0, 1, 0,0) ">
<use xlink:href="#Wireframe_Flat_0_Layer8_0_FILL"/>
</g>

<g transform="matrix( 1, 0, 0, 1, 0,0) ">
<use xlink:href="#Wireframe_Flat_0_Layer7_0_FILL"/>
</g>

<g transform="matrix( 1, 0, 0, 1, 0,0) ">
<use xlink:href="#Wireframe_Flat_0_Layer6_0_FILL"/>
</g>

<g transform="matrix( 0.9999847412109375, 0, 0, 0.9999847412109375, 0,0) ">
<g transform="matrix( 1, 0, 0, 1, 0,0) ">
<use xlink:href="#Wing_flat_0_Layer8_0_FILL"/>
</g>

<g transform="matrix( 1, 0, 0, 1, 0,0) ">
<use xlink:href="#Wing_flat_0_Layer7_0_1_STROKES"/>
</g>

<g transform="matrix( 1, 0, 0, 1, 0,0) ">
<use xlink:href="#Wing_flat_0_Layer6_0_FILL"/>
</g>

<g transform="matrix( 1, 0, 0, 1, 0,0) ">
<use xlink:href="#Wing_flat_0_Layer5_0_FILL"/>
</g>

<g transform="matrix( 1, 0, 0, 1, 0,0) ">
<use xlink:href="#Wing_flat_0_Layer4_0_FILL"/>
</g>

<g transform="matrix( 0, 1, -1, 0, 100,-25) ">
<g transform="matrix( 1, 0, 0, 1, 0,0) ">
<use xlink:href="#Door_0_Layer0_0_FILL"/>
</g>

<g transform="matrix( 1, 0, 0, 1, 0,0) ">
<use xlink:href="#Door_0_Layer0_1_FILL"/>
</g>
</g>

<g transform="matrix( -1, 0, 0, -1, 125,-100) ">
<g transform="matrix( 1, 0, 0, 1, 0,0) ">
<use xlink:href="#Door_0_Layer0_0_FILL"/>
</g>

<g transform="matrix( 1, 0, 0, 1, 0,0) ">
<use xlink:href="#Door_0_Layer0_1_FILL"/>
</g>
</g>

<g transform="matrix( 0, 1, -1, 0, 300,-25) ">
<g transform="matrix( 1, 0, 0, 1, 0,0) ">
<use xlink:href="#Door_0_Layer0_0_FILL"/>
</g>

<g transform="matrix( 1, 0, 0, 1, 0,0) ">
<use xlink:href="#Door_0_Layer0_1_FILL"/>
</g>
</g>

<g transform="matrix( 1, 0, 0, 1, 0,0) ">
<use xlink:href="#Wing_flat_0_Layer1_0_FILL"/>
</g>
</g>

<g transform="matrix( 0.9999847412109375, 0, 0, -0.9999847412109375, 0,0) ">
<g transform="matrix( 1, 0, 0, 1, 0,0) ">
<use xlink:href="#Wing_flat_0_Layer8_0_FILL"/>
</g>

<g transform="matrix( 1, 0, 0, 1, 0,0) ">
<use xlink:href="#Wing_flat_0_Layer7_0_1_STROKES"/>
</g>

<g transform="matrix( 1, 0, 0, 1, 0,0) ">
<use xlink:href="#Wing_flat_0_Layer6_0_FILL"/>
</g>

<g transform="matrix( 1, 0, 0, 1, 0,0) ">
<use xlink:href="#Wing_flat_0_Layer5_0_FILL"/>
</g>

<g transform="matrix( 1, 0, 0, 1, 0,0) ">
<use xlink:href="#Wing_flat_0_Layer4_0_FILL"/>
</g>

<g transform="matrix( 0, 1, -1, 0, 100,-25) ">
<g transform="matrix( 1, 0, 0, 1, 0,0) ">
<use xlink:href="#Door_0_Layer0_0_FILL"/>
</g>

<g transform="matrix( 1, 0, 0, 1, 0,0) ">
<use xlink:href="#Door_0_Layer0_1_FILL"/>
</g>
</g>

<g transform="matrix( -1, 0, 0, -1, 125,-100) ">
<g transform="matrix( 1, 0, 0, 1, 0,0) ">
<use xlink:href="#Door_0_Layer0_0_FILL"/>
</g>

<g transform="matrix( 1, 0, 0, 1, 0,0) ">
<use xlink:href="#Door_0_Layer0_1_FILL"/>
</g>
</g>

<g transform="matrix( 0, 1, -1, 0, 300,-25) ">
<g transform="matrix( 1, 0, 0, 1, 0,0) ">
<use xlink:href="#Door_0_Layer0_0_FILL"/>
</g>

<g transform="matrix( 1, 0, 0, 1, 0,0) ">
<use xlink:href="#Door_0_Layer0_1_FILL"/>
</g>
</g>

<g transform="matrix( 1, 0, 0, 1, 0,0) ">
<use xlink:href="#Wing_flat_0_Layer1_0_FILL"/>
</g>
</g>

<g transform="matrix( 1, 0, 0, 1, 0,0) ">
<use xlink:href="#Wireframe_Flat_0_Layer4_0_FILL"/>
</g>

<g transform="matrix( 1, 0, 0, 1, 0,0) ">
<use xlink:href="#Wireframe_Flat_0_Layer3_0_FILL"/>
</g>

<g transform="matrix( 1, 0, 0, 1, 0,0) ">
<use xlink:href="#Wireframe_Flat_0_Layer3_1_FILL"/>
</g>

<g transform="matrix( 1, 0, 0, 1, 25,0) ">
<g transform="matrix( 1, 0, 0, 1, 0,0) ">
<use xlink:href="#Door_0_Layer0_0_FILL"/>
</g>

<g transform="matrix( 1, 0, 0, 1, 0,0) ">
<use xlink:href="#Door_0_Layer0_1_FILL"/>
</g>
</g>

<g transform="matrix( 1, 0, 0, 1, 225,0) ">
<g transform="matrix( 1, 0, 0, 1, 0,0) ">
<use xlink:href="#Door_0_Layer0_0_FILL"/>
</g>

<g transform="matrix( 1, 0, 0, 1, 0,0) ">
<use xlink:href="#Door_0_Layer0_1_FILL"/>
</g>
</g>

<g transform="matrix( 0, 1, -1, 0, 300,-25) ">
<g transform="matrix( 1, 0, 0, 1, 0,0) ">
<use xlink:href="#Door_0_Layer0_0_FILL"/>
</g>

<g transform="matrix( 1, 0, 0, 1, 0,0) ">
<use xlink:href="#Door_0_Layer0_1_FILL"/>
</g>
</g>
</g>
</svg>
