
<svg xmlns="http://www.w3.org/2000/svg" version="1.1" xmlns:xlink="http://www.w3.org/1999/xlink" preserveAspectRatio="none" x="0px" y="0px" width="950px" height="860px" viewBox="0 0 950 860">
<defs>
<g id="Wireframe_0_Layer6_0_FILL">
<path fill="#000000" stroke="none" d="
M -211.65 -116.35
L -219.5 -117.25 -219.5 120.1 -211.65 119.25 -203.85 1.45 -211.65 -116.35 Z"/>
</g>

<g id="Wireframe_0_Layer6_1_FILL">
<path fill="#000000" stroke="none" d="
M 573.25 -17.45
L 420.45 -70 292.95 -70 292.95 70 420.45 70 573.25 17.35 573.25 -17.45 Z"/>
</g>

<g id="Wireframe_0_Layer6_2_FILL">
<path fill="#000000" stroke="none" d="
M 455.7 -22.45
L 421.25 -50 292.95 -50 292.95 50 421.25 50 455.7 22.45 596.05 16.2 859.55 4.45 859.55 -4.45 596.05 -16.2 455.7 -22.45 Z"/>
</g>

<g id="Thruster_0_Layer1_0_FILL">
<path fill="#000000" stroke="none" d="
M -28.05 -92.1
L -56.4 -92.1 29.2 92.15 56.45 92.15 56.45 29.95 -28.05 -92.1 Z"/>
</g>

<g id="Wing_0_Layer10_0_FILL">
<path fill="#000000" stroke="none" d="
M 250.85 -304.5
L 232.85 -304.5 230.85 -552.4
Q -118.9 -470.85 -286.95 -178.55
L -208.95 -167.55 -197.95 -0.6 340.85 -0.6 340.85 -144.55 250.85 -274.5 250.85 -304.5 Z"/>
</g>

<g id="Wing_0_Layer9_0_FILL">
<path fill="#000000" stroke="none" d="
M -350.8 -166.85
Q -355.65 -161.95 -355.65 -155.05 -355.65 -148.2 -350.8 -143.35 -347.15 -139.7 -342.35 -138.75 -340.8 -138.45 -339.05 -138.45 -332.15 -138.45 -327.3 -143.35 -322.4 -148.2 -322.4 -155.05 -322.4 -161.95 -327.3 -166.85 -332.15 -171.7 -339.05 -171.7 -340.8 -171.7 -342.35 -171.35 -347.15 -170.45 -350.8 -166.85 Z"/>
</g>

<g id="Wing_0_Layer9_1_FILL">
<path fill="#000000" stroke="none" d="
M -338.95 -178.55
L -338.95 -133.55 -178.4 -123.3 -168.35 -154.55
Q -245.95 -184.5 -338.95 -178.55 Z"/>
</g>

<g id="Wing_0_Layer9_2_FILL">
<path fill="#000000" stroke="none" d="
M -187.35 -136.4
L -183.95 -146.95
Q -245.527734375 -168.27109375 -316.85 -166.95
L -316.85 -144.65 -187.35 -136.4 Z"/>
</g>

<g id="Cannon_Node_0_Layer0_0_FILL">
<path fill="#000000" stroke="none" d="
M -2 -9.8
Q -4.9 -9.25 -7.1 -7.1 -10 -4.15 -10 0 -10 4.1 -7.1 7.05 -4.9 9.25 -2 9.8 -1.1 10 0 10 3.25 10 21.05 6.05 40 1.8 40 0 40 -1.8 21.05 -6.05 3.25 -10 0 -10 -1.1 -10 -2 -9.8 Z"/>
</g>

<g id="Wing_0_Layer8_0_FILL">
<path fill="#000000" stroke="none" d="
M 240.35 -207.35
Q 240.2 -207.5 240.1 -207.65 215.35 -241.45 183.75 -265.5 127.482421875 -308.3091796875 62.3 -310.9 59.2259765625 -311.0181640625 56.1 -311.05 -12 -311.9 -85.55 -270.45 -108.55 -257.5 -129.3 -241.85 -139.75 -234 -145.6 -228.7 -176.1 -205.05 -192.55 -174.95 -192.7 -174.7 -192.8 -174.4 -209.75 -143.6 -209.4 -113.7
L -209.4 -113.6
Q -209.2 -79.65 -188.45 -55.4 -188.05 -54.9 -187.55 -54.35
L -187.5 -54.3
Q -181.791796875 -47.8373046875 -175.45 -43 -156.4890625 -28.6 -131.75 -28.6
L -131.7 -28.6
Q -130.4203125 -28.582421875 -128.95 -28.65 -127.640625 -28.6001953125 -126.35 -28.6
L -126.25 -28.6
Q -118.4951171875 -28.5146484375 -103.95 -30.75 -103.234765625 -30.7681640625 -102.55 -30.9
L -102.4 -30.9
Q -87.1587890625 -33.4154296875 -78.1 -34.95
L -77.7 -35
Q -77.5376953125 -34.9978515625 -77.4 -35.05
L -77.25 -35.05
Q -48.05078125 -39.9001953125 -28.2 -40.65 -11.2267578125 -40.0134765625 8.9 -36.4 9.4 -36.3 9.9 -36.25 27.3 -33.05 53.9 -26.2 88.75 -17.3 97.2 -15.45 121.85 -10 152.1 -10.6
L 152.15 -10.6
Q 152.2 -10.6 152.25 -10.6 152.35 -10.6 152.45 -10.6 152.6 -10.6 152.75 -10.6 156.34375 -10.5173828125 159.9 -10.75 193.045703125 -12.6482421875 224.1 -39.55
L 224.15 -39.65
Q 224.5 -39.95 224.85 -40.25
L 224.85 -40.25
Q 263.9 -73.7560546875 263.9 -135.65 263.95 -175.7 240.35 -207.35
M -85.95 -35
Q -86.15 -35 -86.3 -34.95
L -86.7 -34.9 -86.3 -34.95
Q -86.15 -35 -85.95 -35 Z"/>
</g>

<g id="Wing_0_Layer7_0_FILL">
<path fill="#6666CC" stroke="none" d="
M 209.9 -288.4
L 210 -288.5
Q 210.0259765625 -288.513671875 210 -288.55 209.977734375 -288.474609375 209.9 -288.4
M 206.5 -285.45
Q 206.4017578125 -285.3076171875 206.25 -285.2 209.4724609375 -285.8771484375 210.15 -286.25 209.884375 -286.45546875 209.55 -286.7
L 209.65 -286.7
Q 210.6802734375 -286.557421875 210.15 -286.25 212.146484375 -284.7796875 211.65 -286
L 211.65 -286.05 209.95 -290.5 209.95 -289.7
Q 209.9490234375 -289.2189453125 210 -288.7 210.0185546875 -288.6265625 210 -288.55 210.0953125 -288.6728515625 210.15 -288.8
L 210.05 -288.5 210.5 -288.95 209.7 -288.15
Q 209.836328125 -288.2716796875 209.9 -288.4
L 206.5 -285.45
M 173 -385.5
L 171.35 -384.85 173.1 -385.4 172.65 -386.55 173 -385.55 173 -385.5 173 -385.5 172.95 -385.4 173 -385.5
M 67.1 -410
L 67.05 -410 67.05 -409.95 67.05 -409.95 67.05 -409.95 67.1 -409.95 67.1 -410 Z"/>
</g>

<g id="Wing_0_Layer6_0_FILL">
<path fill="#000000" stroke="none" d="
M 240.45 -199.4
Q 226.15 -214.15 208.65 -220.95 133.05 -253.95 54.6 -253.15 20.2 -252.8 -14.75 -245.95 -129.4 -223.6 -165.65 -160.05 -179.6 -135.65 -179.6 -113.75 -179.6 -90.9 -164 -74.7 -148.35 -58.6 -126.25 -58.6 -122.2 -58.6 -118.35 -59.1 -114.8 -59.6 -111.45 -60.55 -47.6 -73.65 -2.85 -70.2 20.85 -68.9 49.05 -62.25 51.6 -61.65 54.6 -60.9 70.8 -57 100.3 -49.7 130.75 -43.75 148.7 -41.35 166.65 -39.05 176.85 -40.6
L 176.85 -40.65
Q 176.99296875 -40.65 177.1 -40.65 179.8 -40.65 182.45 -40.8 216.1 -42.7 240.45 -67.9 250.7 -78.45 256.95 -90.75 266.8 -110.1 266.8 -133.65 266.8 -157.2 256.95 -176.5 250.7 -188.8 240.45 -199.4 Z"/>
</g>

<g id="CORE_0_Layer1_0_FILL">
<path fill="#000000" stroke="none" d="
M 110.25 -197.15
Q 83.9 -170.8 83.9 -133.55 83.9 -96.3 110.25 -69.95 136.6 -43.6 173.85 -43.6 211.1 -43.6 237.45 -69.95 263.8 -96.3 263.8 -133.55 263.8 -170.8 237.45 -197.15 211.1 -223.5 173.85 -223.5 136.6 -223.5 110.25 -197.15 Z"/>
</g>

<g id="CORE_0_Layer1_1_FILL">
<path fill="#000000" stroke="none" d="
M 110.25 -197.15
Q 83.9 -170.8 83.9 -133.55 83.9 -96.3 110.25 -69.95 136.6 -43.6 173.85 -43.6 211.1 -43.6 237.45 -69.95 263.8 -96.3 263.8 -133.55 263.8 -170.8 237.45 -197.15 211.1 -223.5 173.85 -223.5 136.6 -223.5 110.25 -197.15 Z"/>
</g>

<g id="Wing_0_Layer4_0_FILL">
<path fill="#000000" stroke="none" d="
M 8.1 -131.8
Q 6.70625 -133.1939453125 5.2 -134.4 -73.91875 -140.09921875 -165.35 -93.9 -162.22734375 -87.2642578125 -156.8 -81.65
L -156.85 -81.7
Q -144.1458984375 -68.6265625 -126.25 -68.6 -122.8662109375 -68.60234375 -119.65 -69.05
L -119.75 -69
Q -116.881640625 -69.4052734375 -114.2 -70.2 -113.788671875 -70.2751953125 -113.45 -70.35 -55.812109375 -82.1755859375 -13.4 -80.8
L -13.35 -80.8
Q -11.734765625 -80.740625 -10.2 -80.7 0.398828125 -81.5923828125 8.1 -89.35 16.902734375 -98.098828125 16.9 -110.55 16.902734375 -122.976171875 8.1 -131.8
L 8.1 -131.8
M 10.95 -239.55
Q 9.2619140625 -239.2837890625 7.65 -239.6 -2.5666015625 -238.1349609375 -12.85 -236.15 -122.0123046875 -214.8494140625 -157 -155.1
L -157 -155.1
Q -169.323828125 -133.4759765625 -169.6 -114.15 -73.7580078125 -161.4078125 9.3 -154.15
L 19.8 -154.2
Q 36.6474609375 -154.6955078125 48.65 -166.75
L 48.7 -166.75
Q 55.02890625 -173.0501953125 58.1 -180.75
L 58.15 -180.9
Q 61.2869140625 -188.3451171875 61.3 -197.1
L 61.3 -197.15
Q 61.3 -197.3494140625 61.3 -197.55
L 61.3 -197.6
Q 61.2875 -206.3580078125 58.15 -213.85 54.9146484375 -221.295703125 48.65 -227.55 36.1041015625 -240.0998046875 18.3 -240.1 14.5083984375 -240.10546875 10.95 -239.55 Z"/>
</g>

<g id="Wing_0_Layer1_0_FILL">
<path fill="#000000" stroke="none" d="
M 18.3 -250.6
Q 13.7091796875 -250.6 9.4 -249.95
L 9.4 -249.45
Q 13.7091796875 -250.1 18.3 -250.1 40.25 -250.1 55.75 -234.6 63.436328125 -226.913671875 67.4 -217.7 63.6134765625 -227.2365234375 55.75 -235.1 40.25 -250.6 18.3 -250.6 Z"/>
</g>

<g id="Wireframe_0_Layer3_0_FILL">
<path fill="#000000" stroke="none" d="
M -119.35 -10.55
L -194.85 -10.55 -194.85 10.6 -119.35 10.6 -119.35 -10.55 Z"/>
</g>

<g id="Wireframe_0_Layer3_1_FILL">
<path fill="#000000" stroke="none" d="
M 304.95 -36
L 24.3 -6.1 24.25 6.1 304.9 36 334.75 36 415.8 10.9 859.55 1.85 859.55 -1.85 415.85 -10.95 334.75 -36 304.95 -36 Z"/>
</g>

<g id="Wireframe_0_Layer3_2_FILL">
<path fill="#000000" stroke="none" d="
M 405.8 -3.6
L 333.25 -26 305.5 -26 61.45 0 305.45 26 333.25 26 405.8 3.5 405.8 -3.6 Z"/>
</g>

<g id="Wireframe_0_Layer3_3_FILL">
<path fill="#000000" stroke="none" d="
M -123.5 -42.55
L -148.45 -17.65 -148.4 17.6 -123.5 42.55 -88.25 42.55 243.5 7.2 243.45 -7.2 -88.3 -42.55 -123.5 -42.55 Z"/>
</g>

<g id="Wireframe_0_Layer3_3_MEMBER_0_FILL">
<path fill="#000000" stroke="none" d="
M -121.7 -37.95
L -143.95 -15.7 -143.9 15.75 -121.65 38 -90.2 38 -67.95 15.8 -68 -15.7 -90.2 -37.95 -121.7 -37.95 Z"/>
</g>

<path id="Wireframe_0_Layer6_0_1_STROKES" stroke="#FF00FF" stroke-width="1" stroke-linejoin="round" stroke-linecap="round" fill="none" d="
M -219.5 -117.225
L -211.625 -116.35 -203.825 1.45 -211.625 119.25 -219.5 120.125 -219.5 -117.225 Z"/>

<path id="Wireframe_0_Layer6_0_2_STROKES" stroke="#6666CC" stroke-width="1" stroke-linejoin="round" stroke-linecap="round" fill="none" d="
M -229.5 -128.4
L -202.2 -125.4 -193.8 1.45 -202.2 128.3 -229.5 131.3 -229.5 -128.4 Z"/>

<path id="Wireframe_0_Layer6_1_1_STROKES" stroke="#6666CC" stroke-width="1" stroke-linejoin="round" stroke-linecap="round" fill="none" d="
M 292.95 -70
L 420.45 -70 573.25 -17.45 573.25 17.35 420.45 70 292.95 70 292.95 -70 Z"/>

<path id="Wireframe_0_Layer6_2_1_STROKES" stroke="#6666CC" stroke-width="1" stroke-linejoin="round" stroke-linecap="round" fill="none" d="
M 596.05 16.2
L 455.7 22.45 421.25 50 292.95 50 292.95 -50 421.25 -50 455.7 -22.45 596.05 -16.2 859.55 -4.45 859.55 4.45 596.05 16.2 Z"/>

<path id="Thruster_0_Layer1_0_1_STROKES" stroke="#FF0000" stroke-width="1" stroke-linejoin="round" stroke-linecap="round" fill="none" d="
M 56.45 29.95
L 56.45 92.15 29.2 92.15 -56.4 -92.1 -28.05 -92.1 56.45 29.95 Z"/>

<path id="Wing_0_Layer10_0_1_STROKES" stroke="#6666CC" stroke-width="1" stroke-linejoin="round" stroke-linecap="round" fill="none" d="
M -286.95 -178.55
Q -118.9 -470.85 230.85 -552.4
L 232.85 -304.5 250.85 -304.5 250.85 -274.5 340.85 -144.55 340.85 -0.6 -197.95 -0.6 -208.95 -167.55 -286.95 -178.55 Z"/>

<path id="Wing_0_Layer9_0_1_STROKES" stroke="#FF0000" stroke-width="1" stroke-linejoin="round" stroke-linecap="round" fill="none" d="
M -322.4 -155.05
Q -322.4 -148.2 -327.3 -143.35 -332.15 -138.45 -339.05 -138.45 -340.8 -138.45 -342.35 -138.75 -347.15 -139.7 -350.8 -143.35 -355.65 -148.2 -355.65 -155.05 -355.65 -161.95 -350.8 -166.85 -347.15 -170.45 -342.35 -171.35 -340.8 -171.7 -339.05 -171.7 -332.15 -171.7 -327.3 -166.85 -322.4 -161.95 -322.4 -155.05 Z"/>

<path id="Wing_0_Layer9_1_1_STROKES" stroke="#6666CC" stroke-width="1" stroke-linejoin="round" stroke-linecap="round" fill="none" d="
M -338.95 -178.55
Q -245.95 -184.5 -168.35 -154.55
L -178.4 -123.3 -338.95 -133.55 -338.95 -178.55 Z"/>

<path id="Wing_0_Layer9_2_1_STROKES" stroke="#6666CC" stroke-width="1" stroke-linejoin="round" stroke-linecap="round" fill="none" d="
M -316.85 -166.95
Q -245.527734375 -168.27109375 -183.925 -146.95
L -187.325 -136.4 -316.85 -144.65"/>

<path id="Cannon_Node_0_Layer0_0_1_STROKES" stroke="#FF0000" stroke-width="1" stroke-linejoin="round" stroke-linecap="round" fill="none" d="
M 40 0
Q 40 1.8 21.05 6.05 3.25 10 0 10 -1.1 10 -2 9.8 -4.9 9.25 -7.1 7.05 -10 4.1 -10 0 -10 -4.15 -7.1 -7.1 -4.9 -9.25 -2 -9.8 -1.1 -10 0 -10 3.25 -10 21.05 -6.05 40 -1.8 40 0 Z"/>

<path id="Wing_0_Layer8_0_1_STROKES" stroke="#6666CC" stroke-width="1" stroke-linejoin="miter" stroke-linecap="square" stroke-miterlimit="3" fill="none" d="
M 57.25 -411.9
L 71.25 -474.9
Q 71.75 -477.6 73.7 -479.7 75.55 -481.75 78.25 -482.6
L 147.2 -508.6
Q 150.8 -509.65 154.15 -508.1 157.6 -506.5 159.15 -503.1 160.65 -499.7 159.6 -496.1
L 146.6 -428.1
Q 145.85 -425.7 144.05 -423.9 142.25 -422.15 139.9 -421.375
L 69.75 -400.325
Q 66.446875 -399.4421875 63.25 -400.75 59.95 -402.15 58.25 -405.3 56.55 -408.45 57.25 -411.9 Z
M 191.05 -520.5
L 209 -524.5
Q 211.85 -524.5 214.3 -522.95 216.75 -521.45 218 -518.9 219.25 -516.3 218.95 -513.45
L 219.2 -445.65 172.45 -431.65
Q 171.95 -431.9 171.5 -432.2 168.8 -434 167.7 -437.05 166.55 -440.1 167.45 -443.2
L 181.45 -513.2
Q 182.25 -516.4 185 -518.45 187.75 -520.5 191.05 -520.5 Z
M 217.1 -281.4
L 213.1 -277.9
Q 211.5 -276.4 208.5 -276.75 204.35 -277.2 202.35 -282.4
L 163.35 -382.9
Q 162.4 -386.35 163.9 -389.6 165.35 -392.85 168.55 -394.45
L 219.45 -409.45 219.95 -289.75
Q 220.2 -287.4 219.5 -285.25 218.7 -283.15 217.1 -281.4 Z
M -175.425 -43
Q -181.791796875 -47.8373046875 -187.5 -54.3
L -187.55 -54.35
Q -188.05 -54.9 -188.45 -55.4 -209.2 -79.65 -209.4 -113.6
L -209.4 -113.7
Q -209.75 -143.6 -192.8 -174.4 -192.7 -174.7 -192.55 -174.95 -176.1 -205.05 -145.6 -228.7 -139.75 -234 -129.3 -241.85 -108.55 -257.5 -85.55 -270.45 -12 -311.9 56.1 -311.05 59.2259765625 -311.0181640625 62.325 -310.9 127.482421875 -308.3091796875 183.75 -265.5 215.35 -241.45 240.1 -207.65 240.2 -207.5 240.35 -207.35 263.95 -175.7 263.9 -135.65 263.9 -73.7560546875 224.875 -40.225 224.712109375 -40.08828125 224.55 -39.95
L 224.85 -40.25
Q 224.5 -39.95 224.15 -39.65
L 224.1 -39.55
Q 193.045703125 -12.6482421875 159.925 -10.725 156.34375 -10.5173828125 152.75 -10.6 152.6 -10.6 152.45 -10.6 152.35 -10.6 152.25 -10.6 152.2 -10.6 152.15 -10.6
L 152.1 -10.6
M -131.7 -28.6
L -131.75 -28.6
M -41.55 -345.5
L -63.55 -331.5
Q -66.45 -329.7 -69.75 -329.95 -73.1 -330.25 -75.6 -332.5 -78.15 -334.8 -78.75 -338.05
L -88.75 -379.05
Q -89.3 -381.85 -88.25 -384.55 -87.25 -387.25 -84.95 -388.95
L -52.95 -412.95
Q -49.85 -415.25 -46 -414.9 -42.15 -414.55 -39.55 -411.65 -36.95 -408.8 -36.95 -404.95
L -36.95 -353.95
Q -36.95 -351.4 -38.15 -349.15 -39.45 -346.9 -41.55 -345.5 Z
M -85.95 -35
Q -86.15 -35 -86.3 -34.95
L -86.7 -34.9"/>

<path id="Wing_0_Layer8_1_1_STROKES" stroke="#6666CC" stroke-width="1" stroke-linejoin="round" stroke-linecap="round" fill="none" d="
M -175.425 -43
L -103.5 -43"/>

<path id="Wing_0_Layer7_0_1_STROKES" stroke="#FFFF00" stroke-width="1" stroke-linejoin="miter" stroke-linecap="square" stroke-miterlimit="3" fill="none" d="
M 67.1 -409.975
L 67.075 -410 67.075 -410.025 81 -472.725
Q 81.01875 -472.8197265625 81.05 -472.925
L 81.125 -473
Q 81.1806640625 -473.033203125 81.25 -473.05 81.5068359375 -473.1498046875 81.775 -473.25
L 150.025 -498.975
Q 150.01640625 -498.9416015625 150 -498.9 149.8716796875 -498.4376953125 149.775 -497.975
L 136.975 -430.975
Q 137.0046875 -430.996484375 137.025 -431.025
L 137.05 -431.05 137.025 -430.95 136.975 -430.925 67.1 -409.975 Z
M 177.725 -443.675
L 191.1 -510.5
Q 192.169140625 -510.5103515625 193.225 -510.75
L 208.975 -514.25
Q 208.9462890625 -513.8310546875 208.95 -513.425
L 209.175 -453.075 177.725 -443.675 Z
M 209.95 -290.475
L 173.125 -385.375 209.5 -396.1 209.95 -290.475 Z"/>

<path id="Wing_0_Layer6_0_1_STROKES" stroke="#6666CC" stroke-width="1" stroke-linejoin="round" stroke-linecap="round" fill="none" d="
M 176.85 -40.6
Q 166.65 -39.05 148.7 -41.35 130.75 -43.75 100.3 -49.7 70.8 -57 54.6 -60.9 51.6 -61.65 49.05 -62.25 20.85 -68.9 -2.85 -70.2 -47.6 -73.65 -111.45 -60.55 -114.8 -59.6 -118.35 -59.1 -122.2 -58.6 -126.25 -58.6 -148.35 -58.6 -164 -74.7 -179.6 -90.9 -179.6 -113.75 -179.6 -135.65 -165.65 -160.05 -129.4 -223.6 -14.75 -245.95 20.2 -252.8 54.6 -253.15 133.05 -253.95 208.65 -220.95 226.15 -214.15 240.45 -199.4 250.7 -188.8 256.95 -176.5 266.8 -157.2 266.8 -133.65 266.8 -110.1 256.95 -90.75 250.7 -78.45 240.45 -67.9 216.1 -42.7 182.45 -40.8 179.8 -40.65 177.1 -40.65
M 176.85 -40.6
L 176.85 -40.65
Q 176.99296875 -40.65 177.1 -40.65"/>

<path id="Wing_0_Layer6_0_2_STROKES" stroke="#00FFFF" stroke-width="1" stroke-linejoin="round" stroke-linecap="round" fill="none" d="
M 177.1 -40.65
Q 176.99296875 -40.64765625 176.85 -40.6"/>

<path id="CORE_0_Layer1_0_1_STROKES" stroke="#00FFFF" stroke-width="1" stroke-linejoin="round" stroke-linecap="round" fill="none" d="
M 92.47089843750001 0.01782226562497158
Q 92.47089843750001 38.32275390625 65.37465820312497 65.41899414062499 38.27841796874998 92.51523437499999 -0.026513671875022737 92.51523437499999 -38.33144531250002 92.51523437499999 -65.42768554687501 65.41899414062499 -92.52392578125 38.32275390625 -92.52392578125 0.01782226562497158 -92.52392578125 -38.28710937500003 -65.42768554687501 -65.38334960937502 -38.33144531250002 -92.47958984375 -0.026513671875022737 -92.47958984375 38.27841796874998 -92.47958984375 65.37465820312497 -65.38334960937502 92.47089843750001 -38.28710937500003 92.47089843750001 0.01782226562497158 Z"/>

<path id="CORE_0_Layer1_1_1_STROKES" stroke="#00FFFF" stroke-width="1" stroke-linejoin="round" stroke-linecap="round" fill="none" d="
M 28.431109619140635 -0.03676910400390909
Q 28.431109619140635 11.730038452148438 20.10747528076171 20.05367279052734 11.783840942382817 28.377307128906246 0.017033386230465908 28.377307128906246 -11.749774169921878 28.377307128906246 -20.07340850830078 20.05367279052734 -28.397042846679685 11.730038452148438 -28.397042846679685 -0.03676910400390909 -28.397042846679685 -11.803576660156253 -20.07340850830078 -20.127210998535162 -11.749774169921878 -28.450845336914064 0.017033386230465908 -28.450845336914064 11.783840942382817 -28.450845336914064 20.10747528076171 -20.127210998535162 28.431109619140635 -11.803576660156253 28.431109619140635 -0.03676910400390909 Z"/>

<path id="Wing_0_Layer4_0_1_STROKES" stroke="#66FF00" stroke-width="1" stroke-linejoin="round" stroke-linecap="round" fill="none" d="
M 10.95 -239.55
Q 14.5083984375 -240.10546875 18.3 -240.1 36.1041015625 -240.0998046875 48.675 -227.525 54.9146484375 -221.295703125 58.175 -213.85 61.2875 -206.3580078125 61.3 -197.6
L 61.3 -197.55
Q 61.3 -197.3494140625 61.3 -197.15
L 61.3 -197.1
Q 61.2869140625 -188.3451171875 58.175 -180.875
L 58.1 -180.725
Q 55.02890625 -173.0501953125 48.7 -166.725
L 48.675 -166.725
Q 36.6474609375 -154.6955078125 19.825 -154.175
L 9.325 -154.15
Q -73.7580078125 -161.4078125 -169.6 -114.125 -169.323828125 -133.4759765625 -156.975 -155.075
L -156.975 -155.1
Q -122.0123046875 -214.8494140625 -12.825 -236.125 -2.5666015625 -238.1349609375 7.65 -239.575 9.2619140625 -239.2837890625 10.95 -239.55 Z
M 8.125 -131.8
Q 16.902734375 -122.976171875 16.9 -110.55 16.902734375 -98.098828125 8.125 -89.325 0.398828125 -81.5923828125 -10.175 -80.675 -11.734765625 -80.740625 -13.325 -80.8
L -13.375 -80.8
Q -55.812109375 -82.1755859375 -113.45 -70.35 -113.788671875 -70.2751953125 -114.175 -70.175 -116.881640625 -69.4052734375 -119.75 -69
L -119.65 -69.025
Q -122.8662109375 -68.60234375 -126.25 -68.6 -144.1458984375 -68.6265625 -156.825 -81.675
L -156.8 -81.625
Q -162.22734375 -87.2642578125 -165.35 -93.875 -73.91875 -140.09921875 5.2 -134.4 6.70625 -133.1939453125 8.125 -131.775
L 8.125 -131.8 Z"/>

<path id="Wing_0_Layer1_0_1_STROKES" stroke="#6666CC" stroke-width="1" stroke-linejoin="round" stroke-linecap="round" fill="none" d="
M 67.4 -217.7
Q 71.2556640625 -208.4318359375 71.3 -197.6 71.3 -197.3494140625 71.3 -197.1 71.2556640625 -186.268359375 67.4 -177.025 63.613671875 -167.4884765625 55.75 -159.65 40.9005859375 -144.8005859375 20.125 -144.175
L 8.775 -144.15
Q 12.1509765625 -141.8990234375 15.2 -138.85 26.9 -127.1 26.9 -110.55 26.9 -93.95 15.2 -82.25 3.5 -70.55 -13.1 -70.55 -13.40078125 -70.55 -13.7 -70.55
M 9.4 -249.925
L 9.4 -249.425
Q 13.7091796875 -250.1 18.3 -250.1 40.25 -250.1 55.75 -234.6 63.436328125 -226.913671875 67.4 -217.7
M -178.05 -98.575
Q -77.5171875 -151.589453125 8.775 -144.15"/>

<path id="Wing_0_Layer0_0_1_STROKES" stroke="#FFFF00" stroke-width="1" stroke-linejoin="miter" stroke-linecap="square" stroke-miterlimit="3" fill="none" d="
M -78.9 -381
L -46.975 -404.925 -46.95 -404.95 -46.95 -353.9 -47.025 -353.875 -68.925 -339.925 -68.825 -340
Q -68.880859375 -339.9662109375 -68.925 -339.95 -68.9783203125 -340.1783203125 -69.025 -340.425
L -78.9 -380.975 -78.9 -381 Z"/>

<path id="Wireframe_0_Layer3_0_1_STROKES" stroke="#6666CC" stroke-width="1" stroke-linejoin="round" stroke-linecap="round" fill="none" d="
M -194.85 -10.55
L -119.35 -10.55 -119.35 10.6 -194.85 10.6 -194.85 -10.55 Z"/>

<path id="Wireframe_0_Layer3_1_1_STROKES" stroke="#6666CC" stroke-width="1" stroke-linejoin="round" stroke-linecap="round" fill="none" d="
M 24.25 6.1
L 304.9 36 334.75 36 415.8 10.9 859.55 1.85 859.55 -1.85 415.85 -10.95 334.75 -36 304.95 -36 24.3 -6.1 24.25 6.1 Z"/>

<path id="Wireframe_0_Layer3_2_1_STROKES" stroke="#6666CC" stroke-width="1" stroke-linejoin="round" stroke-linecap="round" fill="none" d="
M 61.475 0
L 305.525 -26 333.25 -26 405.825 -3.575 405.825 3.525 333.25 26 305.475 26 61.475 0 Z"/>

<path id="Wireframe_0_Layer3_3_1_STROKES" stroke="#6666CC" stroke-width="1" stroke-linejoin="round" stroke-linecap="round" fill="none" d="
M 243.5 7.2
L -88.25 42.55 -123.5 42.55 -148.4 17.6 -148.45 -17.65 -123.5 -42.55 -88.3 -42.55 243.45 -7.2 243.5 7.2 Z"/>

<path id="Wireframe_0_Layer3_3_MEMBER_0_1_STROKES" stroke="#FF9900" stroke-width="1" stroke-linejoin="round" stroke-linecap="round" fill="none" d="
M -70.96675415039063 14.598266601562502
L -91.4540283203125 35.039501953125 -120.41244506835939 35.039501953125 -140.89971923828125 14.552227783203126 -140.9457580566406 -14.406188964843748 -120.45848388671875 -34.89346313476563 -91.4540283203125 -34.89346313476563 -71.01279296875 -14.406188964843748 -70.96675415039063 14.598266601562502 Z"/>
</defs>

<g transform="matrix( 0.761077880859375, 0, 0, 0.7611083984375, 287.3,424.95) ">
<g transform="matrix( 1, 0, 0, 1, 0,0) ">
<use xlink:href="#Wireframe_0_Layer6_0_FILL"/>

<use xlink:href="#Wireframe_0_Layer6_0_1_STROKES"/>

<use xlink:href="#Wireframe_0_Layer6_0_2_STROKES"/>
</g>

<g transform="matrix( 1, 0, 0, 1, 0,0) ">
<use xlink:href="#Wireframe_0_Layer6_1_FILL"/>

<use xlink:href="#Wireframe_0_Layer6_1_1_STROKES"/>
</g>

<g transform="matrix( 1, 0, 0, 1, 0,0) ">
<use xlink:href="#Wireframe_0_Layer6_2_FILL"/>

<use xlink:href="#Wireframe_0_Layer6_2_1_STROKES"/>
</g>

<g transform="matrix( 1, 0, 0, -1, 4,-0.6) ">
<g transform="matrix( 1, 0, 0, 1, 299.2,-180) ">
<g transform="matrix( 1, 0, 0, 1, 0,0) ">
<use xlink:href="#Thruster_0_Layer1_0_FILL"/>

<use xlink:href="#Thruster_0_Layer1_0_1_STROKES"/>
</g>
</g>

<g transform="matrix( 1, 0, 0, 1, 0,0) ">
<use xlink:href="#Wing_0_Layer10_0_FILL"/>

<use xlink:href="#Wing_0_Layer10_0_1_STROKES"/>
</g>

<g transform="matrix( 1, 0, 0, 1, 0,0) ">
<use xlink:href="#Wing_0_Layer9_0_FILL"/>

<use xlink:href="#Wing_0_Layer9_0_1_STROKES"/>
</g>

<g transform="matrix( 1, 0, 0, 1, 0,0) ">
<use xlink:href="#Wing_0_Layer9_1_FILL"/>

<use xlink:href="#Wing_0_Layer9_1_1_STROKES"/>
</g>

<g transform="matrix( 1, 0, 0, 1, 0,0) ">
<use xlink:href="#Wing_0_Layer9_2_FILL"/>

<use xlink:href="#Wing_0_Layer9_2_1_STROKES"/>
</g>

<g transform="matrix( 1.4225006103515625, 0, 0, 1.4225006103515625, -313.6,-155.4) ">
<g transform="matrix( 1, 0, 0, 1, 0,0) ">
<use xlink:href="#Cannon_Node_0_Layer0_0_FILL"/>

<use xlink:href="#Cannon_Node_0_Layer0_0_1_STROKES"/>
</g>
</g>

<g transform="matrix( 1, 0, 0, 1, 0,0) ">
<use xlink:href="#Wing_0_Layer8_0_FILL"/>

<use xlink:href="#Wing_0_Layer8_0_1_STROKES"/>
</g>

<g transform="matrix( 1, 0, 0, 1, 0,0) ">
<use xlink:href="#Wing_0_Layer8_1_1_STROKES"/>
</g>

<g transform="matrix( 1, 0, 0, 1, 0,0) ">
<use xlink:href="#Wing_0_Layer7_0_FILL"/>

<use xlink:href="#Wing_0_Layer7_0_1_STROKES"/>
</g>

<g transform="matrix( 1, 0, 0, 1, 0,0) ">
<use xlink:href="#Wing_0_Layer6_0_FILL"/>

<use xlink:href="#Wing_0_Layer6_0_1_STROKES"/>

<use xlink:href="#Wing_0_Layer6_0_2_STROKES"/>
</g>

<g transform="matrix( 1, 0, 0, 1, 176.4,-132) ">
<g transform="matrix( 1.0283203125, 0, 0, 1.0283203125, -178.8,137.35) ">
<use xlink:href="#CORE_0_Layer1_0_FILL"/>

<use xlink:href="#CORE_0_Layer1_0_1_STROKES" transform="matrix( 0.9724578857421875, 0, 0, 0.9724578857421875, 173.85,-133.55) "/>
</g>

<g transform="matrix( 0.315887451171875, 0, 0, 0.315887451171875, -54.9,42.15) ">
<use xlink:href="#CORE_0_Layer1_1_FILL"/>

<use xlink:href="#CORE_0_Layer1_1_1_STROKES" transform="matrix( 3.165679931640625, 0, 0, 3.165679931640625, 173.75,-133.4) "/>
</g>
</g>

<g transform="matrix( 1, 0, 0, 1, 0,0) ">
<use xlink:href="#Wing_0_Layer4_0_FILL"/>

<use xlink:href="#Wing_0_Layer4_0_1_STROKES"/>
</g>

<g transform="matrix( 1, 0, 0, 1, 0,0) ">
<use xlink:href="#Wing_0_Layer1_0_FILL"/>

<use xlink:href="#Wing_0_Layer1_0_1_STROKES"/>
</g>

<g transform="matrix( 1, 0, 0, 1, 0,0) ">
<use xlink:href="#Wing_0_Layer0_0_1_STROKES"/>
</g>
</g>

<g transform="matrix( 1, 0, 0, 1, 4,0.6) ">
<g transform="matrix( 1, 0, 0, 1, 299.2,-180) ">
<g transform="matrix( 1, 0, 0, 1, 0,0) ">
<use xlink:href="#Thruster_0_Layer1_0_FILL"/>

<use xlink:href="#Thruster_0_Layer1_0_1_STROKES"/>
</g>
</g>

<g transform="matrix( 1, 0, 0, 1, 0,0) ">
<use xlink:href="#Wing_0_Layer10_0_FILL"/>

<use xlink:href="#Wing_0_Layer10_0_1_STROKES"/>
</g>

<g transform="matrix( 1, 0, 0, 1, 0,0) ">
<use xlink:href="#Wing_0_Layer9_0_FILL"/>

<use xlink:href="#Wing_0_Layer9_0_1_STROKES"/>
</g>

<g transform="matrix( 1, 0, 0, 1, 0,0) ">
<use xlink:href="#Wing_0_Layer9_1_FILL"/>

<use xlink:href="#Wing_0_Layer9_1_1_STROKES"/>
</g>

<g transform="matrix( 1, 0, 0, 1, 0,0) ">
<use xlink:href="#Wing_0_Layer9_2_FILL"/>

<use xlink:href="#Wing_0_Layer9_2_1_STROKES"/>
</g>

<g transform="matrix( 1.4225006103515625, 0, 0, 1.4225006103515625, -313.6,-155.4) ">
<g transform="matrix( 1, 0, 0, 1, 0,0) ">
<use xlink:href="#Cannon_Node_0_Layer0_0_FILL"/>

<use xlink:href="#Cannon_Node_0_Layer0_0_1_STROKES"/>
</g>
</g>

<g transform="matrix( 1, 0, 0, 1, 0,0) ">
<use xlink:href="#Wing_0_Layer8_0_FILL"/>

<use xlink:href="#Wing_0_Layer8_0_1_STROKES"/>
</g>

<g transform="matrix( 1, 0, 0, 1, 0,0) ">
<use xlink:href="#Wing_0_Layer8_1_1_STROKES"/>
</g>

<g transform="matrix( 1, 0, 0, 1, 0,0) ">
<use xlink:href="#Wing_0_Layer7_0_FILL"/>

<use xlink:href="#Wing_0_Layer7_0_1_STROKES"/>
</g>

<g transform="matrix( 1, 0, 0, 1, 0,0) ">
<use xlink:href="#Wing_0_Layer6_0_FILL"/>

<use xlink:href="#Wing_0_Layer6_0_1_STROKES"/>

<use xlink:href="#Wing_0_Layer6_0_2_STROKES"/>
</g>

<g transform="matrix( 1, 0, 0, 1, 176.4,-132) ">
<g transform="matrix( 1.0283203125, 0, 0, 1.0283203125, -178.8,137.35) ">
<use xlink:href="#CORE_0_Layer1_0_FILL"/>

<use xlink:href="#CORE_0_Layer1_0_1_STROKES" transform="matrix( 0.9724578857421875, 0, 0, 0.9724578857421875, 173.85,-133.55) "/>
</g>

<g transform="matrix( 0.315887451171875, 0, 0, 0.315887451171875, -54.9,42.15) ">
<use xlink:href="#CORE_0_Layer1_1_FILL"/>

<use xlink:href="#CORE_0_Layer1_1_1_STROKES" transform="matrix( 3.165679931640625, 0, 0, 3.165679931640625, 173.75,-133.4) "/>
</g>
</g>

<g transform="matrix( 1, 0, 0, 1, 0,0) ">
<use xlink:href="#Wing_0_Layer4_0_FILL"/>

<use xlink:href="#Wing_0_Layer4_0_1_STROKES"/>
</g>

<g transform="matrix( 1, 0, 0, 1, 0,0) ">
<use xlink:href="#Wing_0_Layer1_0_FILL"/>

<use xlink:href="#Wing_0_Layer1_0_1_STROKES"/>
</g>

<g transform="matrix( 1, 0, 0, 1, 0,0) ">
<use xlink:href="#Wing_0_Layer0_0_1_STROKES"/>
</g>
</g>

<g transform="matrix( 1, 0, 0, 1, 0,0) ">
<use xlink:href="#Wireframe_0_Layer3_0_FILL"/>

<use xlink:href="#Wireframe_0_Layer3_0_1_STROKES"/>
</g>

<g transform="matrix( 1, 0, 0, 1, 0,0) ">
<use xlink:href="#Wireframe_0_Layer3_1_FILL"/>

<use xlink:href="#Wireframe_0_Layer3_1_1_STROKES"/>
</g>

<g transform="matrix( 1, 0, 0, 1, 0,0) ">
<use xlink:href="#Wireframe_0_Layer3_2_FILL"/>

<use xlink:href="#Wireframe_0_Layer3_2_1_STROKES"/>
</g>

<g transform="matrix( 1, 0, 0, 1, 0,0) ">
<use xlink:href="#Wireframe_0_Layer3_3_FILL"/>

<use xlink:href="#Wireframe_0_Layer3_3_1_STROKES"/>
</g>

<g transform="matrix( 0.9207763671875, 0, 0, 0.9207763671875, -8.4,0.05) ">
<use xlink:href="#Wireframe_0_Layer3_3_MEMBER_0_FILL"/>

<use xlink:href="#Wireframe_0_Layer3_3_MEMBER_0_1_STROKES" transform="matrix( 1.086029052734375, 0, 0, 1.086029052734375, 9.1,-0.05) "/>
</g>
</g>
</svg>
