
<svg xmlns="http://www.w3.org/2000/svg" version="1.1" xmlns:xlink="http://www.w3.org/1999/xlink" preserveAspectRatio="none" x="0px" y="0px" width="950px" height="850px" viewBox="0 0 950 850">
<defs>
<g id="Layer10_0_FILL">
<path fill="#000000" stroke="none" d="
M 716.75 -3
L 716.75 -3.4 516.25 -12.35 498.9 -13.15 498.9 -13.3 382.6 -53.25 325.4 -53.25 325.4 -57.75
Q 327.0599609375 -56.9919921875 329 -57 332.667578125 -56.99921875 335.25 -59.6 335.3263671875 -59.6728515625 335.4 -59.75 338.00078125 -62.332421875 338 -66
L 338 -108
Q 338.0115234375 -110.779296875 336.5 -113 336.300390625 -113.4060546875 336 -113.8
L 275.6 -200.1 275.65 -199.95
Q 273.498046875 -203.258984375 270 -204.25 265.7712890625 -205.5572265625 262.5 -203.15 261.7296875 -202.6271484375 261.1 -202
L 256.9 -208.05 256.9 -230.8 256.9 -230.85 243.2 -230.85 241.65 -419.5
Q 109.4 -388.65 8.85 -314.85 -90.5 -241.9 -154.85 -130
L -154.85 -130
Q -154.836328125 -129.973828125 -154.85 -129.95
L -93 -126.6 -84.7 0.2 -93 127 -154.85 130.35
Q -154.836328125 130.373828125 -154.85 130.4
L -154.85 130.4
Q -90.5 242.3 8.85 315.25 109.4 389.05 241.65 419.9
L 243.2 231.25 256.9 231.25 256.9 231.2 256.9 208.45 261.1 202.35
Q 261.7099609375 203.0064453125 262.55 203.55 265.75 205.95 270 204.6 273.5 203.65 275.7 200.35
L 275.6 200.45 336.05 114.2
Q 336.3 113.8 336.5 113.35 338 111.2 338 108.4
L 338 66.4
Q 338 62.75 335.4 60.15 335.35 60.05 335.25 60 332.65 57.4 329 57.4 327.05 57.4 325.4 58.1
L 325.4 53.65 382.6 53.65 498.9 13.7 498.9 13.5 516.25 12.75 716.75 3.8 716.75 3.4 716.75 -3 Z"/>
</g>

<g id="Layer8_0_FILL">
<path fill="#999999" stroke="none" d="
M -91.2 -96.55
L -112 -98.8 -112 -19.1
Q -114.0423828125 -17.7880859375 -115.9 -16
L -115.9 -15.95
Q -122.50234375 -9.351171875 -122.5 -0.05 -122.4935546875 9.309765625 -115.9 15.9 -114.05703125 17.7498046875 -112 19.05
L -112 98.8 -91.2 96.55 -86 17.6
Q -85.022265625 16.8291015625 -84.1 15.9
L -84.1 15.85
Q -77.506640625 9.2919921875 -77.5 -0.05 -77.4978515625 -9.351171875 -84.1 -15.95 -85.02421875 -16.8751953125 -86 -17.65
L -91.2 -96.55 Z"/>
</g>

<g id="Layer7_0_FILL">
<path fill="#CCCCCC" stroke="none" d="
M 280 -25
L 256.55 -25 250 -19.75 250 19.8 256.55 25 280 25 280 50 320 50 320 25 400 25
Q 410.35 25 417.65 17.65 425 10.35 425 0 425 -10.35 417.65 -17.7 410.35 -25 400 -25
L 320 -25 320 -50 280 -50 280 -25 Z"/>
</g>

<g id="Layer6_0_FILL">
<path fill="#99999A" stroke="none" d="
M 30 -20
L 0 -20 0 20 30 20 30 50 70 50 70 20 249.9 20 249.9 -20 70 -20 70 -50 30 -50 30 -20 Z"/>
</g>

<g id="Wing_flat_0_Layer9_0_FILL">
<path fill="#CCCCCC" stroke="none" d="
M -204.1 -129.15
Q -210 -123.25 -210 -115 -210 -106.7 -204.1 -100.85 -198.25 -94.95 -190 -94.95 -189.136328125 -94.95 -188.3 -95.05 -187.9025390625 -95 -187.5 -95
L -180.9 -95 -150.9 -95 -119.45 -95
Q -118.1517578125 -89.8517578125 -114.15 -85.85 -108.3 -80 -100 -80 -91.7 -80 -85.85 -85.85 -80 -91.7 -80 -100
L -80 -115
Q -80 -117.320703125 -80.45 -119.45 -81.6357421875 -124.9357421875 -85.85 -129.15 -91.7 -135 -100 -135 -100.2486328125 -135 -100.5 -135
L -150.9 -135 -153.9 -135 -156.9 -135 -159.9 -135 -180.9 -135 -187.5 -135
Q -188.1322265625 -135 -188.75 -135 -189.3677734375 -135 -190 -135 -198.25 -135 -204.1 -129.15 Z"/>
</g>

<g id="Wing_flat_0_Layer8_0_FILL">
<path fill="#CCCCCC" stroke="none" d="
M 135.9 -164.2
Q 130 -158.3 130 -150.05 130 -141.75 135.9 -135.9 137.1224609375 -134.6669921875 138.45 -133.7 134.798046875 -127.176953125 132.7 -120
L 100 -120 100 -80 126 -80 132.7 -80
Q 134.78828125 -72.846875 138.4 -66.35 137.107421875 -65.3970703125 135.9 -64.2 130 -58.3 130 -50.05 130 -41.75 135.9 -35.9 141.75 -30 150 -30 158.3 -30 164.15 -35.9 165.359765625 -37.109765625 166.3 -38.45 181.38203125 -30 199.95 -30 218.5884765625 -30 233.65 -38.45 234.663671875 -37.12578125 235.9 -35.9 241.75 -30 250 -30 258.3 -30 264.15 -35.9 270 -41.75 270 -50.05 270 -58.3 264.15 -64.2 262.9203125 -65.419140625 261.55 -66.4 270 -81.4400390625 270 -100 270 -118.5962890625 261.55 -133.65 262.9052734375 -134.6447265625 264.15 -135.9 270 -141.75 270 -150.05 270 -158.3 264.15 -164.2 258.3 -170 250 -170 241.75 -170 235.9 -164.2 234.6296875 -162.9296875 233.6 -161.55 218.5552734375 -170 199.95 -170 181.415234375 -170 166.35 -161.6 165.39375 -162.945703125 164.15 -164.2 158.3 -170 150 -170 141.75 -170 135.9 -164.2 Z"/>
</g>

<g id="Wing_flat_0_Layer7_0_FILL">
<path fill="#999999" stroke="none" d="
M 36.1 -314.15
Q 30.25 -308.3 30.25 -300
L 30.25 -264 30.25 -263.95 30.25 -220 0 -220 0 -215 0 -185 0 -180 30 -180 30 -150 70 -150 70 -180 100 -180 100 -220 70.25 -220 70.25 -263.95 70.25 -264 70.25 -300
Q 70.25 -308.3 64.4 -314.15 58.55 -320 50.25 -320 41.95 -320 36.1 -314.15 Z"/>

<path fill="#CCCCCC" stroke="none" d="
M 220 -300
L 180 -300 180 -270 154.35 -270
Q 144.4 -269.75 137.35 -262.65 134.4 -259.7 116.9 -239.55
L 100 -220 100 -180 195 -180
Q 205.35 -180 212.65 -187.35 217.55 -192.2 250 -230
L 250 -270 220 -270 220 -300
M 0 -185
L 0 -215 -5 -220 -25 -220 -30 -225 -70 -225 -75 -220 -95 -220 -100 -215 -100 -214.3
Q -99.9 -214.25 -99.8 -214.15 -98.4 -213.25 -98.05 -211.65 -97.848046875 -210.573046875 -98.2 -209.6 -98.121875 -209.3751953125 -98.1 -209.15 -97.7537109375 -207.533203125 -98.7 -206.15
L -100 -204.2 -100 -185 -95 -180 -75 -180 -70 -175 -30 -175 -25 -180 -5 -180 0 -185 Z"/>

<path fill="#99999A" stroke="none" d="
M 220 -350.55
Q 219.8171875 -358.4828125 214.15 -364.15 208.3 -370 200 -370 191.7 -370 185.85 -364.15 180.1828125 -358.4828125 180 -350.55
L 180 -300 220 -300 220 -350.55 Z"/>

<path fill="#FF0000" stroke="none" d="
M -102.8 -214.75
Q -104.4 -214.45 -105.3 -213.05
L -119.55 -191.7
Q -120.4 -190.45 -120.2 -188.95 -120 -187.5 -118.85 -186.5 -117.75 -185.5 -116.25 -185.5
L -113 -185.5
Q -112.85 -185.35 -112.65 -185.25 -115.9 -180.2 -119.2 -175.05 -120.15 -175.7 -121.35 -175.7
L -128.8 -175.7
Q -129.8 -175.7 -130.65 -175.25 -131.55 -174.8 -132.1 -173.95
L -147.2 -152
Q -148.05 -150.75 -147.85 -149.25 -147.7 -147.8 -146.55 -146.75 -145.45 -145.75 -143.95 -145.75
L -134.55 -145.7
Q -133.15 -145.7 -132.1 -146.5 -131.1 -146.05 -129.9 -146.25 -128.3 -146.5 -127.3 -147.85 -126.65 -148.75 -114.65 -167.3
L -114.6 -167.35
Q -108.7 -176.6 -102.85 -185.7 -102 -186 -101.3 -186.65 -100.15 -187.85 -100.15 -189.5 -100.15 -191.15 -101.3 -192.3 -101.65 -192.65 -102 -192.85
L -102 -203.65 -98.65 -208.65
Q -98.355859375 -209.1076171875 -98.2 -209.6 -97.848046875 -210.573046875 -98.05 -211.65 -98.4 -213.25 -99.8 -214.15 -99.9 -214.25 -100 -214.3 -101.3 -215.1 -102.8 -214.75 Z"/>

<path fill="#666666" stroke="none" d="
M 25 -150
L 25 -170 -0.05 -170
Q -15.14921875 -170 -27.95 -164.4 -39.6919921875 -159.255859375 -49.5 -149.4 -62.7447265625 -136.2197265625 -67.45 -119.45 -70 -110.2634765625 -70 -100 -70 -71 -49.5 -50.55 -29 -30 -0.05 -30
L 25 -30 25 -50 70 -50 100 -80 100 -120 70 -150 30 -150 25 -150 Z"/>
</g>

<g id="Wing_flat_0_Layer7_1_FILL">
<path fill="#99999A" stroke="none" d="
M 320 -100
Q 320 -108.3 314.15 -114.15 308.3 -120 300 -120 291.7 -120 285.85 -114.15 280 -108.3 280 -100
L 280 -50 320 -50 320 -100 Z"/>
</g>

<g id="Wing_flat_0_Layer5_0_FILL">
<path fill="#333333" stroke="none" d="
M 199.95 -125
Q 189.6 -125 182.35 -117.7 175 -110.35 175 -100 175 -89.6 182.35 -82.35 189.6 -75 199.95 -75 210.35 -75 217.65 -82.35 225 -89.6 225 -100 225 -110.35 217.65 -117.7 210.35 -125 199.95 -125 Z"/>
</g>

<g id="Door_0_Layer0_0_FILL">
<path fill="#FFCC00" stroke="none" d="
M 3 -15
L -3 -15 -3 0 3 0 3 -15 Z"/>
</g>

<g id="Door_0_Layer0_1_FILL">
<path fill="#FFCC00" stroke="none" d="
M 3 15
L 3 0 -3 0 -3 15 3 15 Z"/>
</g>

<g id="SYSTEM_THRUSTER_0_Layer0_0_FILL">
<path fill="#FF0000" stroke="none" d="
M -33 -68.25
Q -34.35 -67.3 -34.55 -65.4 -34.6 -63.55 -33.45 -61.8
L 26.6 23.95 26.6 64.8
Q 26.6 66.45 27.75 67.6 28.95 68.8 30.6 68.8 32.25 68.8 33.4 67.6 34.6 66.45 34.6 64.8
L 34.6 22.8
Q 34.6 21.15 33.4 19.95
L 33.55 19.9 -26.9 -66.4
Q -28.05 -68.15 -29.9 -68.65 -31.65 -69.2 -33 -68.25 Z"/>
</g>

<g id="SYSTEM_CANNON_0_Layer0_0_FILL">
<path fill="#FF0000" stroke="none" d="
M 54.5 -3
Q 54.5 -4.65 53.3 -5.85 52.15 -7 50.5 -7
L -39.5 -7 -39.5 -18
Q -45.7 -18 -50.1 -13.6 -54.5 -9.2 -54.5 -3 -54.5 3.2 -50.1 7.6 -45.7 12 -39.5 12
L -39.5 1 46.5 1 46.5 14
Q 46.5 15.65 47.65 16.8 48.85 18 50.5 18 52.15 18 53.3 16.8 54.5 15.65 54.5 14
L 54.5 -3 Z"/>
</g>

<g id="Shield_0_Layer0_0_FILL">
<path fill="#FF0000" stroke="none" d="
M 55.3 -25.75
Q 55.85 -27.5 55.3 -29.1 54.55 -30.85 52.95 -31.55 51.15 -32.2 49.5 -31.55 29.9 -23.35 -9.8 -2.2 -48.95 18.45 -54.1 23.15 -55.4 24.4 -55.5 26.25 -55.65 28.1 -54.4 29.4 -53.2 30.8 -51.35 30.85 -49.5 31 -48.15 29.75 -40.8 23.05 -30.7 23.35 -29 23.35 -27.35 23.65
L -27.3 23.65
Q -27.25 23.65 -27.2 23.65 -19.4 24.85 -13.6 30.65 -12.3 31.95 -10.45 31.9 -8.6 31.9 -7.35 30.6 54.8 -24.6 55.3 -25.75
M 4.05 -1.3
Q 4.1 -3.85 5.95 -5.6 7.85 -7.35 10.35 -7.3 12.9 -7.15 14.6 -5.4 16.4 -3.55 16.3 -1 16.25 1.45 14.4 3.15 12.65 5 10.05 4.9 7.55 4.8 5.75 2.95 4 1.15 4.05 -1.3
M 27.6 -13.35
Q 28.8 -12 28.75 -10.15 28.7 -8.3 27.4 -7.1 26.05 -5.75 24.25 -5.8 22.4 -5.85 21.05 -7.2 19.85 -8.55 19.9 -10.4 19.95 -12.25 21.25 -13.45 22.65 -14.75 24.5 -14.75 26.3 -14.65 27.6 -13.35
M -6.55 2.8
Q -3.3 2.9 -1.15 5.15 1.05 7.6 0.95 10.8 0.95 14.05 -1.4 16.2 -3.7 18.45 -6.95 18.4 -10.1 18.3 -12.4 15.85 -14.6 13.6 -14.55 10.35 -14.45 7.15 -12.15 4.85 -9.7 2.7 -6.55 2.8 Z"/>
</g>

<g id="WingStabiliser_0_Layer0_0_FILL">
<path fill="#FF0000" stroke="none" d="
M 22 -17.7
Q 22 -19 21.25 -20 20.5 -21.1 19.25 -21.5 18 -21.9 16.8 -21.5
L -19.2 -10.2
Q -20.45 -9.8 -21.2 -8.75 -22 -7.7 -22 -6.4
L -22 17.7
Q -22 19.2 -21 20.3 -20.05 21.45 -18.55 21.65 -17.1 21.85 -15.85 21.1 -8.85 16.65 0 16.65 8.85 16.6 15.9 21.05 17.15 21.8 18.6 21.6 20.05 21.4 21.05 20.25 22 19.15 22 17.65
L 22 -17.7 Z"/>
</g>

<g id="Layer4_0_FILL">
<path fill="#CCCCCC" stroke="none" d="
M 0 19.8
L 0 -19.75 -6.55 -25 -45 -25
Q -55.35 -25 -62.65 -17.7 -70 -10.35 -70 0 -70 10.35 -62.65 17.65 -55.35 25 -45 25
L -6.55 25 0 19.8 Z"/>
</g>

<g id="SYSTEM_BRIDGE_0_Layer0_0_FILL">
<path fill="#FF0000" stroke="none" d="
M 4.05 -8.5
Q 5.6 -10.1 7.5 -10.95
L 7.5 -19.4
Q 2.35 -18.15 -1.6 -14.15 -7.5 -8.3 -7.5 0 -7.5 8.25 -1.6 14.1
L -1.6 14.15
Q 2.4 18.15 7.5 19.4
L 7.5 10.95
Q 5.65 10.05 4.1 8.5
L 4 8.45
Q 0.5 4.95 0.5 0 0.5 -5 4.05 -8.5 Z"/>
</g>

<g id="SYSTEM_DEFLECTOR_0_Layer0_0_FILL">
<path fill="#FF0000" stroke="none" d="
M -100 -65
Q -101.65 -65 -102.85 -63.85 -104 -62.65 -104 -61
L -104 61
Q -104 62.65 -102.85 63.8 -101.65 65 -100 65 -98.35 65 -97.2 63.8 -96 62.65 -96 61
L -96 -61
Q -96 -62.65 -97.2 -63.85 -98.35 -65 -100 -65 Z"/>
</g>

<g id="SYSTEM_STABILISER_0_Layer0_0_FILL">
<path fill="#FF0000" stroke="none" d="
M 718.8 -2.85
Q 717.65 -4 716 -4
L 434 -4
Q 432.35 -4 431.15 -2.85 430 -1.65 430 0 430 1.65 431.15 2.8 432.35 4 434 4
L 716 4
Q 717.65 4 718.8 2.8 720 1.65 720 0 720 -1.65 718.8 -2.85 Z"/>
</g>
</defs>

<g transform="matrix( 0.9999847412109375, 0, 0, 1, 225,425) ">
<g transform="matrix( 1, 0, 0, 1, 0,0) ">
<use xlink:href="#Layer10_0_FILL"/>
</g>

<g transform="matrix( 1, 0, 0, 1, 0,0) ">
<use xlink:href="#Layer8_0_FILL"/>
</g>

<g transform="matrix( 1, 0, 0, 1, 0,0) ">
<use xlink:href="#Layer7_0_FILL"/>
</g>

<g transform="matrix( 1, 0, 0, 1, 0,0) ">
<use xlink:href="#Layer6_0_FILL"/>
</g>

<g transform="matrix( 0.9999847412109375, 0, 0, 0.9999847412109375, 0,0) ">
<g transform="matrix( 1, 0, 0, 1, 0,0) ">
<use xlink:href="#Wing_flat_0_Layer9_0_FILL"/>
</g>

<g transform="matrix( 1, 0, 0, 1, 0,0) ">
<use xlink:href="#Wing_flat_0_Layer8_0_FILL"/>
</g>

<g transform="matrix( 1, 0, 0, 1, 0,0) ">
<use xlink:href="#Wing_flat_0_Layer7_0_FILL"/>
</g>

<g transform="matrix( 1, 0, 0, 1, 0,0) ">
<use xlink:href="#Wing_flat_0_Layer7_1_FILL"/>
</g>

<g transform="matrix( 1, 0, 0, 1, 0,0) ">
<use xlink:href="#Wing_flat_0_Layer5_0_FILL"/>
</g>

<g transform="matrix( 0, 1, -1, 0, 50,-50) ">
<g transform="matrix( 1, 0, 0, 1, 0,0) ">
<use xlink:href="#Door_0_Layer0_0_FILL"/>
</g>

<g transform="matrix( 1, 0, 0, 1, 0,0) ">
<use xlink:href="#Door_0_Layer0_1_FILL"/>
</g>
</g>

<g transform="matrix( -1, 0, 0, -1, 100,-100) ">
<g transform="matrix( 1, 0, 0, 1, 0,0) ">
<use xlink:href="#Door_0_Layer0_0_FILL"/>
</g>

<g transform="matrix( 1, 0, 0, 1, 0,0) ">
<use xlink:href="#Door_0_Layer0_1_FILL"/>
</g>
</g>

<g transform="matrix( 0, 1, -1, 0, 300,-50) ">
<g transform="matrix( 1, 0, 0, 1, 0,0) ">
<use xlink:href="#Door_0_Layer0_0_FILL"/>
</g>

<g transform="matrix( 1, 0, 0, 1, 0,0) ">
<use xlink:href="#Door_0_Layer0_1_FILL"/>
</g>
</g>

<g transform="matrix( 0, 1, -1, 0, 50,-150) ">
<g transform="matrix( 1, 0, 0, 1, 0,0) ">
<use xlink:href="#Door_0_Layer0_0_FILL"/>
</g>

<g transform="matrix( 1, 0, 0, 1, 0,0) ">
<use xlink:href="#Door_0_Layer0_1_FILL"/>
</g>
</g>

<g transform="matrix( -1, 0, 0, -1, 100,-200) ">
<g transform="matrix( 1, 0, 0, 1, 0,0) ">
<use xlink:href="#Door_0_Layer0_0_FILL"/>
</g>

<g transform="matrix( 1, 0, 0, 1, 0,0) ">
<use xlink:href="#Door_0_Layer0_1_FILL"/>
</g>
</g>

<g transform="matrix( -1, 0, 0, -1, 250,-250) ">
<g transform="matrix( 1, 0, 0, 1, 0,0) ">
<use xlink:href="#Door_0_Layer0_0_FILL"/>
</g>

<g transform="matrix( 1, 0, 0, 1, 0,0) ">
<use xlink:href="#Door_0_Layer0_1_FILL"/>
</g>
</g>

<g transform="matrix( -1, 0, 0, -1, -100,-200) ">
<g transform="matrix( 1, 0, 0, 1, 0,0) ">
<use xlink:href="#Door_0_Layer0_0_FILL"/>
</g>

<g transform="matrix( 1, 0, 0, 1, 0,0) ">
<use xlink:href="#Door_0_Layer0_1_FILL"/>
</g>
</g>

<g transform="matrix( -1, 0, 0, -1, 0,-200) ">
<g transform="matrix( 1, 0, 0, 1, 0,0) ">
<use xlink:href="#Door_0_Layer0_0_FILL"/>
</g>

<g transform="matrix( 1, 0, 0, 1, 0,0) ">
<use xlink:href="#Door_0_Layer0_1_FILL"/>
</g>
</g>

<g transform="matrix( 0, 1, -1, 0, 200,-300) ">
<g transform="matrix( 1, 0, 0, 1, 0,0) ">
<use xlink:href="#Door_0_Layer0_0_FILL"/>
</g>

<g transform="matrix( 1, 0, 0, 1, 0,0) ">
<use xlink:href="#Door_0_Layer0_1_FILL"/>
</g>
</g>

<g transform="matrix( 1, 0, 0, 1, 298.4,-130.8) ">
<g transform="matrix( 1, 0, 0, 1, 0,0) ">
<use xlink:href="#SYSTEM_THRUSTER_0_Layer0_0_FILL"/>
</g>
</g>

<g transform="matrix( 1, 0, 0, 1, -150.5,-112) ">
<g transform="matrix( 1, 0, 0, 1, 0,0) ">
<use xlink:href="#SYSTEM_CANNON_0_Layer0_0_FILL"/>
</g>
</g>

<g transform="matrix( 1, 0, 0, 1, 81.9,-354.55) ">
<g transform="matrix( 1, 0, 0, 1, 0,0) ">
<use xlink:href="#Shield_0_Layer0_0_FILL"/>
</g>
</g>

<g transform="matrix( 1, 0, 0, 1, 200,-396.3) ">
<g transform="matrix( 1, 0, 0, 1, 0,0) ">
<use xlink:href="#WingStabiliser_0_Layer0_0_FILL"/>
</g>
</g>
</g>

<g transform="matrix( 0.9999847412109375, 0, 0, -0.9999847412109375, 0,0) ">
<g transform="matrix( 1, 0, 0, 1, 0,0) ">
<use xlink:href="#Wing_flat_0_Layer9_0_FILL"/>
</g>

<g transform="matrix( 1, 0, 0, 1, 0,0) ">
<use xlink:href="#Wing_flat_0_Layer8_0_FILL"/>
</g>

<g transform="matrix( 1, 0, 0, 1, 0,0) ">
<use xlink:href="#Wing_flat_0_Layer7_0_FILL"/>
</g>

<g transform="matrix( 1, 0, 0, 1, 0,0) ">
<use xlink:href="#Wing_flat_0_Layer7_1_FILL"/>
</g>

<g transform="matrix( 1, 0, 0, 1, 0,0) ">
<use xlink:href="#Wing_flat_0_Layer5_0_FILL"/>
</g>

<g transform="matrix( 0, 1, -1, 0, 50,-50) ">
<g transform="matrix( 1, 0, 0, 1, 0,0) ">
<use xlink:href="#Door_0_Layer0_0_FILL"/>
</g>

<g transform="matrix( 1, 0, 0, 1, 0,0) ">
<use xlink:href="#Door_0_Layer0_1_FILL"/>
</g>
</g>

<g transform="matrix( -1, 0, 0, -1, 100,-100) ">
<g transform="matrix( 1, 0, 0, 1, 0,0) ">
<use xlink:href="#Door_0_Layer0_0_FILL"/>
</g>

<g transform="matrix( 1, 0, 0, 1, 0,0) ">
<use xlink:href="#Door_0_Layer0_1_FILL"/>
</g>
</g>

<g transform="matrix( 0, 1, -1, 0, 300,-50) ">
<g transform="matrix( 1, 0, 0, 1, 0,0) ">
<use xlink:href="#Door_0_Layer0_0_FILL"/>
</g>

<g transform="matrix( 1, 0, 0, 1, 0,0) ">
<use xlink:href="#Door_0_Layer0_1_FILL"/>
</g>
</g>

<g transform="matrix( 0, 1, -1, 0, 50,-150) ">
<g transform="matrix( 1, 0, 0, 1, 0,0) ">
<use xlink:href="#Door_0_Layer0_0_FILL"/>
</g>

<g transform="matrix( 1, 0, 0, 1, 0,0) ">
<use xlink:href="#Door_0_Layer0_1_FILL"/>
</g>
</g>

<g transform="matrix( -1, 0, 0, -1, 100,-200) ">
<g transform="matrix( 1, 0, 0, 1, 0,0) ">
<use xlink:href="#Door_0_Layer0_0_FILL"/>
</g>

<g transform="matrix( 1, 0, 0, 1, 0,0) ">
<use xlink:href="#Door_0_Layer0_1_FILL"/>
</g>
</g>

<g transform="matrix( -1, 0, 0, -1, 250,-250) ">
<g transform="matrix( 1, 0, 0, 1, 0,0) ">
<use xlink:href="#Door_0_Layer0_0_FILL"/>
</g>

<g transform="matrix( 1, 0, 0, 1, 0,0) ">
<use xlink:href="#Door_0_Layer0_1_FILL"/>
</g>
</g>

<g transform="matrix( -1, 0, 0, -1, -100,-200) ">
<g transform="matrix( 1, 0, 0, 1, 0,0) ">
<use xlink:href="#Door_0_Layer0_0_FILL"/>
</g>

<g transform="matrix( 1, 0, 0, 1, 0,0) ">
<use xlink:href="#Door_0_Layer0_1_FILL"/>
</g>
</g>

<g transform="matrix( -1, 0, 0, -1, 0,-200) ">
<g transform="matrix( 1, 0, 0, 1, 0,0) ">
<use xlink:href="#Door_0_Layer0_0_FILL"/>
</g>

<g transform="matrix( 1, 0, 0, 1, 0,0) ">
<use xlink:href="#Door_0_Layer0_1_FILL"/>
</g>
</g>

<g transform="matrix( 0, 1, -1, 0, 200,-300) ">
<g transform="matrix( 1, 0, 0, 1, 0,0) ">
<use xlink:href="#Door_0_Layer0_0_FILL"/>
</g>

<g transform="matrix( 1, 0, 0, 1, 0,0) ">
<use xlink:href="#Door_0_Layer0_1_FILL"/>
</g>
</g>

<g transform="matrix( 1, 0, 0, 1, 298.4,-130.8) ">
<g transform="matrix( 1, 0, 0, 1, 0,0) ">
<use xlink:href="#SYSTEM_THRUSTER_0_Layer0_0_FILL"/>
</g>
</g>

<g transform="matrix( 1, 0, 0, 1, -150.5,-112) ">
<g transform="matrix( 1, 0, 0, 1, 0,0) ">
<use xlink:href="#SYSTEM_CANNON_0_Layer0_0_FILL"/>
</g>
</g>

<g transform="matrix( 1, 0, 0, 1, 81.9,-354.55) ">
<g transform="matrix( 1, 0, 0, 1, 0,0) ">
<use xlink:href="#Shield_0_Layer0_0_FILL"/>
</g>
</g>

<g transform="matrix( 1, 0, 0, 1, 200,-396.3) ">
<g transform="matrix( 1, 0, 0, 1, 0,0) ">
<use xlink:href="#WingStabiliser_0_Layer0_0_FILL"/>
</g>
</g>
</g>

<g transform="matrix( 1, 0, 0, 1, 0,0) ">
<use xlink:href="#Layer4_0_FILL"/>
</g>

<g transform="matrix( 1, 0, 0, 1, -57.5,0) ">
<g transform="matrix( 1, 0, 0, 1, 0,0) ">
<use xlink:href="#SYSTEM_BRIDGE_0_Layer0_0_FILL"/>
</g>
</g>

<g transform="matrix( 1, 0, 0, 1, -100,0) ">
<g transform="matrix( 1, 0, 0, 1, 100,0) ">
<use xlink:href="#SYSTEM_DEFLECTOR_0_Layer0_0_FILL"/>
</g>
</g>

<g transform="matrix( 1, 0, 0, 1, 575,0) ">
<g transform="matrix( 1, 0, 0, 1, -575,0) ">
<use xlink:href="#SYSTEM_STABILISER_0_Layer0_0_FILL"/>
</g>
</g>

<g transform="matrix( 1, 0, 0, 1, 0,0) ">
<g transform="matrix( 1, 0, 0, 1, 0,0) ">
<use xlink:href="#Door_0_Layer0_0_FILL"/>
</g>

<g transform="matrix( 1, 0, 0, 1, 0,0) ">
<use xlink:href="#Door_0_Layer0_1_FILL"/>
</g>
</g>

<g transform="matrix( 1, 0, 0, 1, 250,0) ">
<g transform="matrix( 1, 0, 0, 1, 0,0) ">
<use xlink:href="#Door_0_Layer0_0_FILL"/>
</g>

<g transform="matrix( 1, 0, 0, 1, 0,0) ">
<use xlink:href="#Door_0_Layer0_1_FILL"/>
</g>
</g>
</g>
</svg>
