
<svg xmlns="http://www.w3.org/2000/svg" version="1.1" xmlns:xlink="http://www.w3.org/1999/xlink" preserveAspectRatio="none" x="0px" y="0px" width="1200px" height="200px" viewBox="0 0 1200 200">
<defs>
<g id="Layer0_0_FILL">
<path fill="#FF99FD" stroke="none" d="
M -169.95 522.35
L -258.9 522.35 -258.9 611.3 -169.95 611.3 -169.95 522.35
M 103.85 127.9
L 100.05 127.85 99.35 185 103.85 127.9
M 150.25 28.05
L 160.95 32.75 158.55 22.1 128.95 15 114.15 27.45 130.15 51.15 89.85 49.95 54.9 59.45 43.05 92 65.6 79.55 88.9 91.25 76.85 127.55 100.05 127.85 103.85 127.9 125.4 128.15 119.5 147.7 133.1 124 104.15 123.7 100.1 123.65 83.35 123.4 94.8 93.65 100.4 96.4 101.1 96.75 100.4 96.4 100.1 123.65 104.15 123.7 106.4 95.25 142.55 84.9 150.85 60.6 132.5 33.35 139 26.85 150.25 28.05 Z"/>

<path fill="#FF7B7B" stroke="none" d="
M -169.95 88.95
L -169.95 0 -258.9 0 -258.9 88.95 -169.95 88.95 Z"/>

<path fill="#FF946B" stroke="none" d="
M 1140.85 46.05
L 1142.8 37.05 1147.6 30.9 1140.1 23.35 1129.75 37.15 1120.9 39.95 1110 63.3 1066.1 71.65 1041.95 53.25 1052.45 110.1 1090.95 128.6 1093.15 176.65 1097.85 129.9 1144.4 96.15 1140.2 71.4 1145.7 65.9 1138.8 57.75 1151.85 61.8 1149.75 50.15 1140.85 46.05 Z"/>

<path fill="#9999FF" stroke="none" d="
M 527 54.65
L 558.55 54.65 566.05 63.7 569.8 47.15 558.55 30.65 507.45 30.65 493.95 62.95 448.9 108 430.1 163.55 460.9 160.55 468.4 124.5 486.45 122.25 486.45 169.5 495.45 120 515.75 114.75 528.5 96 527 54.65 Z"/>

<path fill="#FFFA6F" stroke="none" d="
M 344.55 43.65
L 341.35 32.85 333.75 31.55 331.8 27.1 314.6 25.2 309.5 32.2 308.25 49.4 296.1 52.6 282.75 78.75 281.45 106.75 256.65 148.15 278.9 148.75 301.85 124.55 301.85 174.9 308.25 120.1 333.1 93.4 345.2 62.15 332.45 48.75 329.25 41.1 333.75 39.85 344.55 43.65 Z"/>

<path fill="#93FE88" stroke="none" d="
M 758.6 40.85
L 742.8 39.45 736.35 27.3 717.15 45.25 730.05 78.2 681.4 76.2 644.85 87.7 627.7 79.9 651.45 114.25 691.55 132.65 695.95 172.75 697.95 131.25 746.65 121.1 758.1 91 737.15 55.9 742.15 52.35 760.1 50.1 770 40.85 758.6 40.85 Z"/>

<path fill="#59B0F1" stroke="none" d="
M 960.55 43.8
L 966.3 28.35 920 26.45 911.65 21.9 885.9 32.2 887.2 50.25 909.7 76 881.4 95.3 829.35 90.8 850.6 121 874.35 137.7 884 135.2 888.5 178.25 892.35 131.95 916.15 125.55 929 99.15 927.1 73.4 918.1 57.95 960.55 43.8 Z"/>
</g>

<g id="Layer0_1_FILL">
<path fill="#FF9A74" stroke="none" d="
M -122.95 498.85
L -122.95 409.9 -211.9 409.9 -211.9 498.85 -122.95 498.85 Z"/>
</g>

<g id="Layer0_2_FILL">
<path fill="#FFFA6F" stroke="none" d="
M -122.95 409.9
L -122.95 498.85 -34 498.85 -34 409.9 -122.95 409.9 Z"/>
</g>

<g id="Layer0_3_FILL">
<path fill="#93FE88" stroke="none" d="
M 54.95 498.85
L 54.95 409.9 -34 409.9 -34 498.85 54.95 498.85 Z"/>
</g>

<g id="Layer0_4_FILL">
<path fill="#59B0F1" stroke="none" d="
M 54.95 498.85
L 143.9 498.85 143.9 409.9 54.95 409.9 54.95 498.85 Z"/>
</g>

<g id="Layer0_5_FILL">
<path fill="#9999FF" stroke="none" d="
M -258.9 433.4
L -258.9 522.35 -169.95 522.35 -169.95 433.4 -258.9 433.4 Z"/>
</g>

<path id="Layer0_0_1_STROKES" stroke="#FF99FD" stroke-width="2" stroke-linejoin="miter" stroke-linecap="butt" stroke-miterlimit="3" fill="none" d="
M -258.9 522.35
L -169.95 522.35 -169.95 611.3 -258.9 611.3 -258.9 522.35 Z
M 100.05 127.85
L 76.85 127.55 88.9 91.25 65.6 79.55 43.05 92 54.9 59.45 89.85 49.95 130.15 51.15 114.15 27.45 128.95 15 158.55 22.1 160.95 32.75 150.25 28.05 139 26.85 132.5 33.35 150.85 60.6 142.55 84.9 106.4 95.25 104.15 123.7 133.1 124 119.5 147.7 125.4 128.15 103.85 127.9 99.35 185 100.05 127.85 103.85 127.9
M 101.1 96.75
L 100.4 96.4 100.1 123.65 104.15 123.7
M 100.4 96.4
L 94.8 93.65 83.35 123.4 100.1 123.65"/>

<path id="Layer0_0_2_STROKES" stroke="#FFFA6F" stroke-width="2" stroke-linejoin="miter" stroke-linecap="butt" stroke-miterlimit="3" fill="none" d="
M 256.65 148.15
L 281.45 106.75 282.75 78.75 296.1 52.6 308.25 49.4 309.5 32.2 314.6 25.2 331.8 27.1 333.75 31.55 341.35 32.85 344.55 43.65 333.75 39.85 329.25 41.1 332.45 48.75 345.2 62.15 333.1 93.4 308.25 120.1 301.85 174.9 301.85 124.55 278.9 148.75 256.65 148.15 Z"/>

<path id="Layer0_0_3_STROKES" stroke="#FF946B" stroke-width="2" stroke-linejoin="miter" stroke-linecap="butt" stroke-miterlimit="3" fill="none" d="
M 1041.95 53.25
L 1052.45 110.1 1090.95 128.6 1093.15 176.65 1097.85 129.9 1144.4 96.15 1140.2 71.4 1145.7 65.9 1138.8 57.75 1151.85 61.8 1149.75 50.15 1140.85 46.05 1142.8 37.05 1147.6 30.9 1140.1 23.35 1129.75 37.15 1120.9 39.95 1110 63.3 1066.1 71.65 1041.95 53.25 Z"/>

<path id="Layer0_0_4_STROKES" stroke="#2CB3F8" stroke-width="2" stroke-linejoin="miter" stroke-linecap="butt" stroke-miterlimit="3" fill="none" d="
M 829.35 90.8
L 850.6 121 874.35 137.7 884 135.2 888.5 178.25 892.35 131.95 916.15 125.55 929 99.15 927.1 73.4 918.1 57.95 960.55 43.8 966.3 28.35 920 26.45 911.65 21.9 885.9 32.2 887.2 50.25 909.7 76 881.4 95.3 829.35 90.8 Z"/>

<path id="Layer0_0_5_STROKES" stroke="#93FE88" stroke-width="2" stroke-linejoin="miter" stroke-linecap="butt" stroke-miterlimit="3" fill="none" d="
M 627.7 79.9
L 651.45 114.25 691.55 132.65 695.95 172.75 697.95 131.25 746.65 121.1 758.1 91 737.15 55.9 742.15 52.35 760.1 50.1 770 40.85 758.6 40.85 742.8 39.45 736.35 27.3 717.15 45.25 730.05 78.2 681.4 76.2 644.85 87.7 627.7 79.9 Z"/>

<path id="Layer0_0_6_STROKES" stroke="#9999FF" stroke-width="2" stroke-linejoin="miter" stroke-linecap="butt" stroke-miterlimit="3" fill="none" d="
M 486.45 169.5
L 486.45 122.25 468.4 124.5 460.9 160.55 430.1 163.55 448.9 108 493.95 62.95 507.45 30.65 558.55 30.65 569.8 47.15 566.05 63.7 558.55 54.65 527 54.65 528.5 96 515.75 114.75 495.45 120 486.45 169.5 Z"/>
</defs>

<g transform="matrix( 1, 0, 0, 1, 0,0) ">
<use xlink:href="#Layer0_0_FILL"/>

<use xlink:href="#Layer0_0_1_STROKES"/>

<use xlink:href="#Layer0_0_2_STROKES"/>

<use xlink:href="#Layer0_0_3_STROKES"/>

<use xlink:href="#Layer0_0_4_STROKES"/>

<use xlink:href="#Layer0_0_5_STROKES"/>

<use xlink:href="#Layer0_0_6_STROKES"/>
</g>

<g transform="matrix( 1, 0, 0, 1, -47,-320.6) ">
<use xlink:href="#Layer0_1_FILL"/>
</g>

<g transform="matrix( 1, 0, 0, 1, -135.95,-231.65) ">
<use xlink:href="#Layer0_2_FILL"/>
</g>

<g transform="matrix( 1, 0, 0, 1, -224.9,-142.7) ">
<use xlink:href="#Layer0_3_FILL"/>
</g>

<g transform="matrix( 1, 0, 0, 1, -313.85,-53.75) ">
<use xlink:href="#Layer0_4_FILL"/>
</g>

<g transform="matrix( 1, 0, 0, 1, 0,0) ">
<use xlink:href="#Layer0_5_FILL"/>
</g>
</svg>
